<defs>
<font horiz-adv-x="951" ><font-face
    font-family="century"
    units-per-em="2048"
    panose-1="2 4 6 4 5 5 5 2 3 4"
    ascent="2019"
    descent="-443"
    alphabetic="0" />
<missing-glyph horiz-adv-x="1536" d="M256 0V1280H1280V0H256ZM288 32H1248V1248H288V32Z" />
<glyph unicode=";" glyph-name="test" horiz-adv-x="2048" d="M424 208L904 240Q864 384 728 520Q711 537 711 544Q711 553 740 545Q828 522 938 389T1049 144Q1049 56 984 56Q929 56 912 200L224 80Q200 16 180 16Q161 16 112 200L376 208L504 760H112V808H528V1184H184V1232H528V1608Q688
1581 688 1556Q688 1539 632 1520V1232H808L904 1328Q1056 1223 1056 1206Q1056 1192 1032 1184H632V808H912L1008 904Q1160 799 1160 782Q1160 768 1136 760H640L424 208ZM1736 1352L1808 1440Q1931 1317 1931 1301Q1931 1280 1864 1280V776Q1864 144 1788 18T1618
-109Q1573 -109 1568 -56Q1561 -22 1543 -8T1384 72Q1367 89 1367 97Q1367 105 1384 105Q1394 105 1576 64Q1653 64 1689 102T1742 296T1760 760V1304H1424V960Q1424 342 1157 58T812 -227Q802 -227 802 -217Q802 -207 816 -184Q1126 87 1223 340T1320 960V1304H1080V1352H1736Z"
/>
<glyph unicode=" " glyph-name="space" horiz-adv-x="569" />
<glyph unicode="!" glyph-name="exclam" horiz-adv-x="606" d="M334 434H282Q281 613 272 702Q257 849 221 1049Q182 1273 182 1342Q182 1429 217 1472T309 1516Q368 1516 402 1475T436 1345Q436 1270 396 1049Q360 855 348 728T334 434ZM309 216Q360 216 395
180T431 93Q431 44 395 8T309 -28Q259 -28 224 7T188 93Q188 145 223 180T309 216Z" />
<glyph unicode="&quot;" glyph-name="quotedbl" horiz-adv-x="797" d="M189 820L134 1117Q111 1238 111 1287Q111 1352 137 1382T210 1413Q254 1413 284 1383T314 1302Q314 1259 288 1117L233 820H189ZM561 820L505 1117Q481 1246 481 1292Q481 1354 509 1383T584
1413Q629 1413 657 1383T686 1302Q686 1217 666 1117L609 820H561Z" />
<glyph unicode="#" glyph-name="numbersign" horiz-adv-x="1139" d="M-34 1059H302L392 1479H518L428 1059H789L880 1479H1007L918 1059H1121V931H893L813 548H1121V418H789L700 0H572L661 418H295L210 0H81L169 418H-34V548H196L276 931H-34V1059ZM402 931L322
548H686L766 931H402Z" />
<glyph unicode="$" glyph-name="dollar" horiz-adv-x="1139" d="M540 1508H624V1411Q689 1411 786 1378T938 1276T992 1121Q992 1056 959 1019T876 981Q832 981 802 1011T771 1086Q771 1132 807 1178Q843 1227 843 1241Q843 1269 797 1297Q729 1337 624 1342V801Q843
724 939 611T1036 349Q1036 189 929 87T624 -29V-278H540V-29Q422 -29 329 12T191 121T146 268Q146 340 181 383T269 426Q317 426 349 393T381 303Q381 246 335 207Q282 161 282 145Q282 115 337 85Q413 43 540 40V611Q160 733 160 1033Q160 1190 263 1295T540
1411V1508ZM540 833V1341Q414 1333 343 1265T272 1100Q272 1017 326 955T540 833ZM624 578V41Q762 53 837 124T912 296Q912 385 853 452T624 578Z" />
<glyph unicode="%" glyph-name="percent" horiz-adv-x="1706" d="M396 1413Q527 1413 609 1315T692 1040Q692 870 609 774T397 678Q271 678 188 775T105 1045Q105 1212 189 1312T396 1413ZM400 1366Q336 1366 296 1299T255 1049Q255 860 295 792T397 723Q461 723
502 791T543 1035Q543 1229 504 1297T400 1366ZM1322 1387H1409L390 0H304L1322 1387ZM1301 707Q1432 707 1514 609T1597 334Q1597 165 1514 69T1303 -28Q1176 -28 1093 69T1010 340Q1010 506 1094 606T1301 707ZM1305 660Q1241 660 1201 593T1160 343Q1160 154
1200 86T1302 18Q1366 18 1407 85T1448 329Q1448 523 1409 591T1305 660Z" />
<glyph unicode="&amp;" glyph-name="ampersand" horiz-adv-x="1669" d="M703 852Q833 632 902 531T1053 333Q1209 527 1209 649Q1209 704 1170 736T1053 768H1000V837H1556V768H1514Q1460 768 1425 752T1361 703T1289 579Q1204 398 1107 275Q1244 135 1346 135Q1408
135 1449 184T1505 353H1567Q1567 166 1487 69T1283 -28Q1214 -28 1143 7T970 134Q854 42 763 7T568 -28Q379 -28 256 93T132 391Q132 527 210 636T493 852Q398 1047 398 1177Q398 1318 500 1417T752 1516Q894 1516 976 1443T1058 1249Q1058 1134 980 1039T703
852ZM665 929Q809 992 863 1063T917 1235Q917 1329 868 1384T741 1439Q665 1439 615 1387T565 1247Q565 1120 665 929ZM528 774Q317 657 317 493Q317 367 415 229T661 90Q786 90 916 191Q819 307 742 420T528 774Z" />
<glyph unicode="&apos;" glyph-name="quotesingle" horiz-adv-x="418" d="M185 820L130 1120Q107 1245 107 1288Q107 1353 133 1383T206 1413Q252 1413 281 1383T311 1303Q311 1266 284 1120L229 820H185Z" />
<glyph unicode="(" glyph-name="parenleft" horiz-adv-x="682" d="M647 1743L673 1688Q531 1537 464 1415T361 1139T325 781Q325 586 362 433T469 153T673 -115L647 -167Q486 -25 404 75Q270 237 201 415T132 787Q132 978 196 1150T387 1478Q474 1586 647 1743Z" />
<glyph unicode=")" glyph-name="parenright" horiz-adv-x="682" d="M35 1743Q210 1584 291 1485Q417 1330 483 1155T550 787Q550 597 486 428T294 97Q203 -18 35 -167L9 -115Q142 25 212 152T320 432T357 780Q357 984 321 1138T218 1415T9 1688L35 1743Z" />
<glyph unicode="*" glyph-name="asterisk" horiz-adv-x="1024" d="M538 1118Q575 1129 606 1146Q629 1159 688 1207Q749 1258 776 1270T829 1283Q871 1283 899 1256T928 1187Q928 1142 894 1114T787 1086L749 1087L683 1090Q619 1090 552 1068Q604 1006 696 948Q757
910 775 884T794 824Q794 783 766 755T701 726Q661 726 632 753T584 853Q563 937 547 975Q535 1004 513 1035Q491 1005 477 974Q467 951 447 875Q422 784 405 763Q377 727 326 727Q282 727 255 752T227 817Q227 886 322 948Q392 994 409 1008Q432 1028 468 1068Q415
1089 346 1089L299 1087L249 1085Q171 1085 135 1113T98 1192Q98 1230 124 1256T191 1282Q250 1282 337 1208Q384 1168 416 1149Q439 1135 486 1118L487 1149Q487 1196 461 1265Q418 1377 418 1409Q418 1455 446 1486T513 1517Q553 1517 581 1488T609 1417Q609
1389 569 1277Q543 1204 538 1118Z" />
<glyph unicode="+" glyph-name="plus" horiz-adv-x="1241" d="M69 759H554V1245H688V759H1173V626H688V144H554V626H69V759Z" />
<glyph unicode="," glyph-name="comma" horiz-adv-x="569" d="M169 -348L133 -300Q326 -153 326 -42Q326 -26 321 -19T304 -11L282 -15Q263 -18 251 -18Q206 -18 173 17T139 102Q139 151 173 185T260 219Q326 219 370 168T414 27Q414 -168 169 -348Z" />
<glyph unicode="-" glyph-name="hyphen" horiz-adv-x="682" d="M137 864H542V712H137V864Z" />
<glyph unicode="." glyph-name="period" horiz-adv-x="569" d="M285 218Q335 218 370 182T405 96Q405 44 370 8T284 -28Q234 -28 199 8T163 95Q163 146 198 182T285 218Z" />
<glyph unicode="/" glyph-name="slash" horiz-adv-x="569" d="M569 1479L129 0H0L441 1479H569Z" />
<glyph unicode="0" glyph-name="zero" horiz-adv-x="1139" d="M572 1413Q767 1413 897 1261Q1058 1074 1058 694Q1058 341 918 157T580 -28Q389 -28 261 127Q101 322 101 690Q101 1040 252 1247Q373 1413 572 1413ZM578 1341Q446 1341 372 1215T298 690Q298 301
374 171T580 41Q710 41 780 161Q863 304 863 683Q863 1075 785 1208T578 1341Z" />
<glyph unicode="1" glyph-name="one" horiz-adv-x="1139" d="M695 1387V139Q695 111 715 96Q744 75 786 75H980V0H261V75H427Q479 75 504 99T529 165V1108Q529 1137 506 1157T447 1177H225V1246Q381 1266 478 1299T649 1387H695Z" />
<glyph unicode="2" glyph-name="two" horiz-adv-x="1139" d="M276 160T776 160Q851 160 883 199T956 415H1024L992 0H96V54L387 385Q630 649 679 717Q749 814 781 904T813 1069Q813 1192 745 1262T556 1333Q420 1333 334 1268T248 1130Q248 1105 261 1092Q273
1079 313 1069Q414 1045 414 951Q414 900 380 867T293 833Q232 833 186 889T140 1037Q140 1139 192 1222T351 1359T579 1413Q700 1413 803 1361T959 1225T1011 1040Q1011 971 985 900T909 767Q823 660 732 584L468 362Q368 278 322 219Z" />
<glyph unicode="3" glyph-name="three" horiz-adv-x="1139" d="M720 739Q863 704 943 623Q1045 520 1045 368Q1045 196 923 92Q784 -28 561 -28Q427 -28 331 16T186 135T138 304Q138 380 175 424T268 468Q319 468 350 435T381 343Q381 306 365 281T309 233Q266
210 266 189Q266 159 296 122T386 62T537 39Q694 39 769 116T845 365Q845 544 781 619T589 695Q555 695 504 687Q463 681 445 681Q415 681 399 693T382 725Q382 746 397 757T448 769L503 767L551 765Q678 765 742 830Q806 895 806 1031Q806 1198 745 1268T563 1339Q452
1339 386 1299T320 1225Q320 1203 358 1166Q412 1116 412 1062Q412 1021 382 993T305 965Q255 965 224 1003T192 1109Q192 1215 268 1297Q376 1413 577 1413Q765 1413 877 1312T989 1062Q989 955 929 877T720 739Z" />
<glyph unicode="4" glyph-name="four" horiz-adv-x="1139" d="M780 1387H845V441H1075V356H845V143Q845 115 867 98Q899 75 941 75H1026V0H471V75H574Q626 75 650 97T675 161V356H109V452L780 1387ZM675 1116L192 441H675V1116Z" />
<glyph unicode="5" glyph-name="five" horiz-adv-x="1139" d="M277 1413Q530 1355 690 1355Q765 1355 831 1369T930 1403Q947 1412 952 1412Q962 1412 962 1397Q962 1362 917 1305T795 1213T616 1179Q499 1179 337 1215L304 833Q380 871 449 890T580 909Q776 909
909 779T1043 458Q1043 246 901 109T533 -28Q360 -28 252 70T143 305Q143 387 177 431T266 476Q319 476 352 441T386 348Q386 305 370 281T309 241Q265 224 265 202Q265 170 295 132T385 69T524 44Q677 44 757 139T838 448Q838 643 753 733T536 823Q476 823 416
801T296 735Q289 665 271 642T225 618Q205 618 193 632T181 671Q181 715 222 758Q234 771 239 781L262 1075Q276 1249 277 1413Z" />
<glyph unicode="6" glyph-name="six" horiz-adv-x="1139" d="M326 656Q404 760 490 805T679 850Q845 850 957 738T1070 453Q1070 246 937 109T608 -28Q470 -28 362 45T186 275T117 639Q117 864 201 1047T415 1321T688 1413Q834 1413 936 1333Q1021 1268 1021 1177Q1021
1116 984 1077T892 1038Q842 1038 807 1071T771 1149Q771 1179 795 1217Q817 1252 817 1272Q817 1300 790 1318Q754 1341 691 1341Q594 1341 514 1280T379 1071T323 737Q323 710 326 656ZM624 752Q499 752 420 662T340 407Q340 229 417 135T613 41Q731 41 803 130T875
396Q875 584 809 668T624 752Z" />
<glyph unicode="7" glyph-name="seven" horiz-adv-x="1139" d="M227 1412Q325 1387 439 1387H1061V1341Q924 1100 856 934T753 615T707 261Q697 94 688 55T652 -6T580 -28Q530 -28 502 6T474 113Q474 178 497 275T602 567Q711 827 791 976L929 1230H387Q327 1230
298 1188T227 937H155L227 1412Z" />
<glyph unicode="8" glyph-name="eight" horiz-adv-x="1139" d="M773 785Q933 727 1004 634T1075 408Q1075 247 972 127Q839 -28 593 -28Q376 -28 250 76T124 337Q124 454 196 541T447 690Q184 803 184 1039Q184 1192 302 1302T603 1413Q728 1413 820 1370T961
1253T1010 1098Q1010 910 773 785ZM696 811Q801 871 837 929T873 1083Q873 1208 802 1276T596 1344Q465 1344 392 1281T319 1115Q319 1014 382 954T696 811ZM522 662Q380 602 325 527T270 343Q270 201 353 123T594 44Q760 44 852 122T944 330Q944 447 865 507T522
662Z" />
<glyph unicode="9" glyph-name="nine" horiz-adv-x="1139" d="M860 718Q795 620 708 571T513 521Q363 521 241 626T118 935Q118 1134 253 1273T577 1413Q784 1413 922 1241T1060 758Q1060 500 984 323T781 59T497 -28Q344 -28 258 39T171 201Q171 263 206 301T296
339Q345 339 379 306T413 227Q413 194 382 154Q363 129 363 111Q363 83 396 63T502 42Q606 42 685 99T813 288T862 629L860 718ZM580 1341Q468 1341 396 1248T324 966Q324 794 396 710T584 625Q699 625 777 716T856 971Q856 1141 775 1241T580 1341Z" />
<glyph unicode=":" glyph-name="colon" horiz-adv-x="569" d="M287 1276Q338 1276 373 1241T408 1155Q408 1103 374 1069T288 1034Q237 1034 202 1069T166 1155Q166 1204 201 1240T287 1276ZM289 529Q339 529 374 494T410 407Q410 355 375 319T289 283Q239 283
203 319T166 405Q166 457 202 493T289 529Z" />
<glyph unicode=";" glyph-name="semicolon" horiz-adv-x="569" d="M289 1276Q340 1276 374 1241T409 1154Q409 1105 374 1070T290 1035Q238 1035 203 1070T167 1153Q167 1204 202 1240T289 1276ZM183 -37L149 10Q341 154 341 275Q341 300 320 300Q312 300 297
295Q277 290 263 290Q220 290 187 326T154 413Q154 461 188 495T274 529Q339 529 384 478T429 343Q429 138 183 -37Z" />
<glyph unicode="&lt;" glyph-name="less" horiz-adv-x="1241" d="M1171 170L70 634V754L1171 1217V1073L249 695L1171 315V170Z" />
<glyph unicode="=" glyph-name="equal" horiz-adv-x="1241" d="M69 1001H1173V867H69V1001ZM69 526H1173V393H69V526Z" />
<glyph unicode="&gt;" glyph-name="greater" horiz-adv-x="1241" d="M70 1217L1171 753V633L70 170V314L992 693L70 1073V1217Z" />
<glyph unicode="?" glyph-name="question" horiz-adv-x="909" d="M443 432H390Q390 550 402 618T434 725T534 870Q597 952 622 1024T648 1184Q648 1302 582 1374T419 1446Q336 1446 281 1405T225 1321Q225 1297 264 1267Q323 1221 323 1167Q323 1119 292 1087T214
1055Q158 1055 120 1100T81 1218Q81 1333 187 1424T454 1516Q619 1516 726 1414T834 1165Q834 1071 797 995Q769 938 656 835Q509 703 478 640T443 432ZM419 216Q469 216 504 181T539 97Q539 45 504 9T419 -28Q369 -28 334 8T299 97Q299 147 334 181T419 216Z"
/>
<glyph unicode="@" glyph-name="at" horiz-adv-x="1509" d="M1131 1017L1010 606L966 453Q953 398 953 364Q953 330 970 312T1016 293Q1083 293 1162 356T1300 557T1358 843Q1358 982 1288 1104T1098 1290T821 1355Q626 1355 461 1255T199 977T103 577Q103 368
184 218T420 -20T761 -108Q985 -108 1165 15T1430 349H1490Q1420 122 1217 -25T755 -172Q434 -172 223 41T12 581Q12 811 119 1003T412 1304T814 1413Q997 1413 1133 1340T1346 1133T1423 830Q1423 605 1293 417T958 229Q890 229 857 260T823 349Q823 396 839 470Q720
326 643 278T504 229Q441 229 396 281T350 424Q350 553 430 703T625 938T821 1023Q880 1023 916 994T965 905L993 999L1131 1017ZM832 983Q724 983 607 785T490 453Q490 396 518 364T590 331Q644 331 712 388Q804 466 869 602T934 854Q934 917 906 950T832 983Z"
/>
<glyph unicode="A" glyph-name="A" horiz-adv-x="1479" d="M715 1510H782L1313 157Q1345 75 1444 75H1490V0H900V75H947Q1039 75 1077 95Q1103 109 1103 138Q1103 155 1096 174L973 488H389L320 308Q293 236 293 194Q293 145 338 110T471 75H521V0H-15V75Q71 75
121 112T213 255L715 1510ZM686 1225L421 566H944L686 1225Z" />
<glyph unicode="B" glyph-name="B" horiz-adv-x="1479" d="M97 1479H868Q1095 1479 1215 1379T1336 1128Q1336 1002 1252 914T999 775Q1208 731 1312 637T1417 398Q1417 288 1358 203T1160 59T845 0H97V75H219Q274 75 299 93T325 134V1319Q325 1361 300 1382T227
1404H97V1479ZM539 799H819Q948 799 1024 875T1101 1124Q1101 1231 1065 1291T959 1378T718 1406Q597 1406 568 1389T539 1327V799ZM539 725V155Q539 115 562 95T647 75H826Q1004 75 1089 153T1174 398Q1174 550 1086 637T843 725H539Z" />
<glyph unicode="C" glyph-name="C" horiz-adv-x="1479" d="M1185 1364L1254 1507H1317L1343 912H1276Q1210 1163 1110 1282Q986 1431 814 1431Q628 1431 511 1265T394 703Q394 370 528 195Q642 47 848 47Q1028 47 1150 162T1309 511H1380Q1349 247 1199 105T821
-37Q636 -37 482 56T235 323T142 706Q142 927 237 1121T482 1412T803 1510Q899 1510 989 1477T1185 1364Z" />
<glyph unicode="D" glyph-name="D" horiz-adv-x="1593" d="M70 1479H834Q1004 1479 1123 1419Q1271 1343 1374 1166T1478 747Q1478 547 1416 387Q1369 264 1272 172T1034 34Q929 0 754 0H70V75H210Q263 75 283 92T304 145V1336Q304 1367 282 1385T221 1404H70V1479ZM606
1404Q561 1404 540 1385T518 1328V148Q518 112 543 94T628 75H754Q923 75 1050 162Q1133 220 1176 325Q1235 467 1235 717Q1235 1087 1106 1259Q996 1404 774 1404H606Z" />
<glyph unicode="E" glyph-name="E" horiz-adv-x="1479" d="M134 1479H1306L1334 980H1267Q1227 1216 1141 1310T915 1404H625Q590 1404 572 1385T554 1327V800H681Q783 800 846 873T915 1097H984V412H915Q910 582 846 655T670 729H554V141Q554 109 575 92T647
75H876Q1249 75 1306 551H1378L1353 0H134V75H235Q294 75 318 95T342 155V1327Q342 1366 321 1385T255 1404H134V1479Z" />
<glyph unicode="F" glyph-name="F" horiz-adv-x="1366" d="M106 1479H1309L1329 967H1260Q1214 1231 1131 1311Q1036 1404 860 1404H623Q588 1404 572 1388T556 1338V803H683Q789 803 852 873T920 1089H992V422H920Q913 588 852 659T683 730H556V166Q556 116 580
96T663 75H817V0H106V75H258Q304 75 323 93T343 154V1330Q343 1370 323 1387T251 1404H106V1479Z" />
<glyph unicode="G" glyph-name="G" horiz-adv-x="1593" d="M1151 1363L1233 1510H1300L1337 920H1272Q1197 1175 1095 1289Q965 1434 797 1434Q668 1434 566 1361T410 1142T355 731Q355 474 409 329T560 116T785 47Q960 47 1055 145T1151 398V537Q1151 570 1126
588T1042 606H917V676H1537V606H1453Q1397 606 1373 587T1349 530V-35H1283Q1247 97 1208 218Q1133 95 1030 34T795 -28Q608 -28 449 68T197 338T104 733Q104 954 197 1129T451 1407T778 1510Q872 1510 957 1479T1151 1363Z" />
<glyph unicode="H" glyph-name="H" horiz-adv-x="1706" d="M96 1479H727V1404H611Q550 1404 532 1383T513 1278V822H1190V1278Q1190 1364 1173 1384T1090 1404H982V1479H1610V1404H1495Q1452 1404 1435 1393T1406 1355Q1400 1338 1400 1266V202Q1400 125 1413
109Q1439 75 1508 75H1610V0H982V75H1090Q1154 75 1177 110Q1190 129 1190 210V724H513V202Q513 124 525 108Q550 75 611 75H727V0H96V75H217Q249 75 268 88T296 125Q301 141 301 210V1278Q301 1361 283 1382T202 1404H96V1479Z" />
<glyph unicode="I" glyph-name="I" horiz-adv-x="834" d="M76 1479H758V1404H641Q563 1404 543 1385T522 1302V182Q522 115 540 98Q564 75 627 75H758V0H76V75H205Q273 75 293 95T313 182V1302Q313 1366 295 1381Q267 1404 192 1404H76V1479Z" />
<glyph unicode="J" glyph-name="J" horiz-adv-x="1139" d="M423 1479H1077V1404H984Q929 1404 906 1384T882 1326V367Q882 256 828 167T670 25T435 -28Q257 -28 144 76T31 332Q31 444 88 511T228 578Q296 578 340 535T384 424Q384 366 348 327T265 287Q247 287
215 297Q188 305 179 305Q162 305 152 291Q141 277 141 249Q141 174 216 113T402 51Q527 51 599 137T671 379V1326Q671 1365 645 1384T554 1404H423V1479Z" />
<glyph unicode="K" glyph-name="K" horiz-adv-x="1593" d="M83 1479H759V1404H615Q569 1404 544 1380T519 1319V632L1076 1227Q1124 1279 1124 1325Q1124 1360 1091 1382T983 1404H942V1479H1549V1404H1502Q1441 1404 1368 1368T1233 1268L890 911L1381 187Q1422
126 1466 101T1570 75H1624V0H957V75H1033Q1116 75 1143 89T1171 124Q1171 143 1159 162L751 762L519 513V149Q519 115 539 99Q571 75 615 75H759V0H83V75H213Q263 75 287 95T311 149V1330Q311 1365 284 1384T193 1404H83V1479Z" />
<glyph unicode="L" glyph-name="L" horiz-adv-x="1366" d="M64 1479H749V1404H585Q546 1404 528 1384T509 1319V152Q509 110 532 93T627 75H835Q1001 75 1106 185T1260 569H1330L1296 0H64V75H185Q247 75 272 98T297 174V1329Q297 1366 276 1385T214 1404H64V1479Z" />
<glyph unicode="M" glyph-name="M" horiz-adv-x="1933" d="M34 1479H527L968 311L1375 1479H1879V1404H1756Q1691 1404 1669 1385T1646 1319V148Q1646 113 1673 94T1766 75H1879V0H1203V75H1329Q1383 75 1409 95T1435 148V1404L946 0H878L352 1398V323Q352 227
376 180T444 107T592 75V0H34V75Q171 84 220 134T269 311V1331Q269 1369 246 1386T160 1404H34V1479Z" />
<glyph unicode="N" glyph-name="N" horiz-adv-x="1669" d="M84 1479H437L1329 317V1158Q1329 1285 1271 1346Q1218 1402 1113 1404V1479H1630V1404Q1551 1404 1512 1382T1444 1302T1415 1175V0H1321L398 1209V317Q398 196 459 137T648 75V0H84V75Q190 79 252 144T314
305V1308L297 1326Q247 1380 226 1390Q197 1404 151 1404H84V1479Z" />
<glyph unicode="O" glyph-name="O" horiz-adv-x="1593" d="M784 1510Q971 1510 1134 1412T1390 1137T1483 739Q1483 518 1390 340T1135 63T790 -37Q612 -37 456 60T206 339T111 742Q111 960 202 1135T453 1410T784 1510ZM800 1433Q605 1433 484 1271T363 743Q363
346 487 194T794 42Q922 42 1019 111T1173 330T1231 724Q1231 990 1177 1139T1023 1361T800 1433Z" />
<glyph unicode="P" glyph-name="P" horiz-adv-x="1366" d="M80 1479H809Q1056 1479 1186 1367T1316 1074Q1316 893 1196 798Q1031 667 789 667H525V162Q525 118 546 99Q574 75 621 75H789V0H80V75H228Q272 75 292 92T313 140V1319Q313 1364 287 1384T189 1404H80V1479ZM525
740H726Q917 740 1001 819T1086 1082Q1086 1210 1048 1278T937 1380T695 1413Q584 1413 555 1392T525 1319V740Z" />
<glyph unicode="Q" glyph-name="Q" horiz-adv-x="1593" d="M1182 92Q1198 51 1217 -20Q1252 -153 1284 -193Q1316 -233 1357 -233Q1395 -233 1422 -191T1452 -49H1512Q1511 -229 1442 -314T1262 -399Q1159 -399 1095 -317T1009 0Q953 -14 901 -21T802 -28Q616
-28 459 68T209 345T116 753Q116 1075 325 1303Q515 1510 797 1510Q986 1510 1142 1415T1392 1141T1486 741Q1486 539 1413 381T1182 92ZM1132 230Q1186 332 1211 451T1236 749Q1236 1001 1181 1147T1026 1364T800 1434Q676 1434 578 1364T424 1146T368 742Q368
562 401 433T504 188Q502 234 502 262Q502 386 581 466T790 546Q920 546 1008 459Q1074 393 1132 230ZM1009 103Q1007 283 962 364Q905 468 787 468Q693 468 633 408T573 253Q573 159 647 75Q718 44 796 44Q856 44 909 59T1009 103Z" />
<glyph unicode="R" glyph-name="R" horiz-adv-x="1479" d="M52 1479H816Q1038 1479 1160 1378T1283 1113Q1283 1015 1235 939T1095 817T807 751Q950 712 1004 675T1090 578T1165 335Q1195 204 1229 156Q1255 119 1285 119Q1316 119 1342 164T1375 325H1443Q1424
-15 1192 -15Q1119 -15 1066 22T985 131Q964 185 938 414Q923 547 891 603T789 693T624 727H503V146Q503 109 522 94Q546 75 597 75H739V0H52V75H197Q245 75 267 94T290 146V1328Q290 1366 267 1385T197 1404H52V1479ZM503 799H678Q854 799 953 865T1053 1102Q1053
1219 1016 1287T917 1380T677 1405Q559 1405 531 1389T503 1332V799Z" />
<glyph unicode="S" glyph-name="S" horiz-adv-x="1290" d="M947 1367L1037 1496H1110L1116 957H1050Q988 1205 867 1319T587 1433Q455 1433 371 1354T287 1161Q287 1090 319 1037T414 950T654 878Q901 824 1000 769T1149 631T1198 435Q1198 235 1064 104T716 -28Q487
-28 318 120L205 -18H133V555H205Q247 318 393 181T722 44Q870 44 963 131T1057 344Q1057 415 1022 468T911 558T612 647Q367 705 278 777Q153 879 153 1066Q153 1261 277 1385T596 1510Q689 1510 773 1477T947 1367Z" />
<glyph unicode="T" glyph-name="T" horiz-adv-x="1366" d="M90 1479H1290L1319 920H1250Q1182 1413 894 1413Q836 1413 815 1393T793 1327V145Q793 109 814 92T883 75H1032V0H345V75H515Q549 75 567 92T585 137V1336Q585 1374 562 1393T488 1413Q343 1413 246
1276Q166 1163 131 920H58L90 1479Z" />
<glyph unicode="U" glyph-name="U" horiz-adv-x="1669" d="M54 1479H737V1404H600Q545 1404 523 1386T501 1331V496Q501 365 524 298Q558 199 648 140T885 81Q1087 81 1193 185T1299 465V1144Q1299 1234 1287 1280T1251 1353T1191 1391T1071 1404V1479H1630V1404H1590Q1496
1404 1450 1354T1404 1207V480Q1404 242 1268 115Q1115 -28 861 -28Q641 -28 515 34T332 214Q289 303 289 438V1331Q289 1365 266 1384T195 1404H54V1479Z" />
<glyph unicode="V" glyph-name="V" horiz-adv-x="1479" d="M-9 1479H614V1404H506Q439 1404 415 1388T391 1345Q391 1324 409 1284L417 1263L806 272L1151 1218Q1161 1246 1161 1286Q1161 1342 1129 1373T1039 1404H938V1479H1484V1404H1440Q1390 1404 1341 1357T1251
1202L793 -35H720L198 1287Q171 1353 136 1378T39 1404H-9V1479Z" />
<glyph unicode="W" glyph-name="W" horiz-adv-x="2009" d="M35 1479H529V1404H494Q416 1404 395 1392T373 1354Q373 1336 388 1297L394 1278L695 339L959 1206Q913 1354 889 1379T791 1404H701V1479H1318V1404H1254Q1170 1404 1145 1391T1120 1350Q1120 1329 1126
1311L1433 339L1685 1180Q1700 1229 1700 1274Q1700 1341 1670 1372T1578 1404H1532V1479H1996V1404Q1935 1396 1899 1375T1837 1313T1783 1180L1419 -35H1349L1007 1050L683 -35H608L192 1278Q167 1355 136 1379T35 1404V1479Z" />
<glyph unicode="X" glyph-name="X" horiz-adv-x="1442" d="M37 1479H644V1404H573Q496 1404 471 1391T445 1358Q445 1343 474 1301L757 885L974 1215Q1016 1279 1016 1318Q1016 1357 980 1380T845 1404V1479H1382V1404Q1294 1404 1243 1374Q1174 1334 1116 1248L812
804L1279 130Q1299 101 1328 89T1431 75V0H845V75H926Q985 75 1007 89T1030 126Q1030 149 1000 193L698 633L474 311Q421 235 421 177Q421 128 452 102T543 75H601V0H37V75Q125 78 194 121T331 263L644 715L240 1295Q192 1364 155 1383T37 1404V1479Z" />
<glyph unicode="Y" glyph-name="Y" horiz-adv-x="1442" d="M-12 1479H636V1404H564Q474 1404 447 1390T420 1351Q420 1325 434 1304L810 721L1080 1218Q1098 1251 1098 1290Q1098 1342 1064 1373T967 1404H898V1479H1462V1404Q1365 1404 1309 1370T1201 1242L860
617V149Q860 112 881 96Q910 75 967 75H1094V0H415V75H549Q603 75 627 94T651 149V604L192 1319Q162 1365 122 1383T-12 1404V1479Z" />
<glyph unicode="Z" glyph-name="Z" horiz-adv-x="1251" d="M150 1479H1157V1404L312 75H633Q771 75 859 120T1001 254T1101 555H1171L1144 0H74V67L927 1404H622Q497 1404 428 1375Q334 1336 275 1236T192 967H122L150 1479Z" />
<glyph unicode="[" glyph-name="bracketleft" horiz-adv-x="682" d="M242 1720H659V1645H482Q440 1645 420 1623T400 1549V35Q400 -20 422 -44T482 -69H659V-144H242V1720Z" />
<glyph unicode="\" glyph-name="backslash" horiz-adv-x="1241" d="M163 1479L1207 0H1078L34 1479H163Z" />
<glyph unicode="]" glyph-name="bracketright" horiz-adv-x="682" d="M440 -144H23V-69H200Q242 -69 262 -47T282 27V1541Q282 1596 261 1620T200 1645H23V1720H440V-144Z" />
<glyph unicode="^" glyph-name="asciicircum" horiz-adv-x="1241" d="M639 1413L1070 686H941L622 1244L301 686H172L609 1413H639Z" />
<glyph unicode="_" glyph-name="underscore" horiz-adv-x="1024" d="M-12 -154H1036V-256H-12V-154Z" />
<glyph unicode="`" glyph-name="grave" horiz-adv-x="682" d="M540 1119L517 1094L239 1297Q129 1378 129 1429Q129 1459 154 1484T213 1510Q268 1510 313 1446L540 1119Z" />
<glyph unicode="a" glyph-name="a" horiz-adv-x="1139" d="M1057 103L1093 47Q1020 -28 931 -28Q863 -28 817 9T735 139Q640 39 568 6T395 -28Q251 -28 176 34T101 193Q101 339 272 435T729 564V706Q729 782 668 836T513 890Q426 890 363 854Q318 827 318 801Q318
786 342 754Q371 714 371 683Q371 638 342 610T266 581Q216 581 183 615T149 702Q149 801 260 883T553 965Q720 965 808 893Q896 820 896 716V204Q896 136 918 104Q940 71 975 71Q1014 71 1057 103ZM729 498Q475 463 369 384Q290 324 290 214Q290 137 331 94T438
50Q556 50 642 139T729 364V498Z" />
<glyph unicode="b" glyph-name="b" horiz-adv-x="1139" d="M357 1496V800Q416 883 488 924T645 965Q810 965 924 836T1038 496Q1038 267 916 127T612 -14Q526 -14 456 20T312 135Q255 44 202 -14L162 0Q190 115 190 240V1299Q190 1348 156 1376T58 1404H16V1479L357
1496ZM609 877Q496 877 425 779T354 453Q354 237 424 144T607 51Q709 51 771 143Q849 259 849 474Q849 686 781 781T609 877Z" />
<glyph unicode="c" glyph-name="c" horiz-adv-x="909" d="M783 278L848 259Q770 -28 504 -28Q309 -28 185 101T61 444Q61 692 197 828T517 965Q655 965 745 889T835 720Q835 664 802 628T722 591Q677 591 646 622T615 697Q615 741 649 781Q665 800 665 811Q665
840 626 867T520 895Q398 895 335 806Q245 677 245 466Q245 265 325 162T529 58Q700 58 783 278Z" />
<glyph unicode="d" glyph-name="d" horiz-adv-x="1176" d="M598 1479L964 1496V214Q964 139 992 107T1078 75H1143V0H823L799 191Q742 89 666 38T494 -14Q334 -14 222 120T109 474Q109 712 253 854Q366 965 513 965Q603 965 674 920T799 784V1313Q799 1355 767
1379T665 1404H598V1479ZM540 882Q432 882 369 793T305 493Q305 264 370 171T537 77Q646 77 723 181T801 487Q801 677 718 786Q646 882 540 882Z" />
<glyph unicode="e" glyph-name="e" horiz-adv-x="1024" d="M946 462H275Q280 248 355 160Q441 61 574 61Q770 61 889 284L954 256Q808 -28 532 -28Q344 -28 216 108T87 456Q87 684 213 824T525 965Q661 965 760 895T909 694Q944 602 946 462ZM275 533H681Q717
533 737 557T757 641Q757 751 689 828T527 905Q423 905 351 812T275 533Z" />
<glyph unicode="f" glyph-name="f" horiz-adv-x="682" d="M387 937H621V850H387V166Q387 119 409 100Q439 75 493 75H621V0H47V75H126Q179 75 200 93T221 149V850H59V937H221V1007Q221 1255 324 1385T579 1516Q692 1516 755 1461T819 1317Q819 1259 789 1226T711
1192Q669 1192 642 1219T614 1287Q614 1334 650 1364Q679 1388 679 1400Q679 1417 657 1431T589 1445Q504 1445 446 1370T387 1145V937Z" />
<glyph unicode="g" glyph-name="g" horiz-adv-x="1100" d="M785 884Q885 985 969 985Q1019 985 1052 953T1085 875Q1085 838 1063 814T1010 789Q953 789 933 859Q925 889 906 889Q872 889 832 844Q875 785 891 742T907 648Q907 561 865 495T726 377T539 326H430Q314
326 276 302Q238 277 238 229Q238 190 269 169Q300 148 386 148L633 153Q820 153 902 91T985 -81Q985 -201 891 -283Q760 -399 500 -399Q285 -399 181 -320Q99 -258 99 -181Q99 -122 151 -73T328 0Q229 24 179 70T129 186Q129 250 169 297T310 379Q225 426 182
492T139 645Q139 781 246 873T524 965Q594 965 659 945T785 884ZM522 901Q433 901 375 836T317 652Q317 526 375 457T523 387Q613 387 670 454T728 648Q728 765 670 833T522 901ZM581 -1Q397 -1 319 -52T240 -175Q240 -243 299 -282Q377 -334 521 -334Q693 -334
780 -277T867 -150Q867 -109 840 -74T754 -20T581 -1Z" />
<glyph unicode="h" glyph-name="h" horiz-adv-x="1251" d="M43 1479L398 1496V774Q472 870 557 917T737 965Q827 965 899 922Q955 888 994 803T1034 602V157Q1034 114 1056 95T1125 75H1205V0H699V75H755Q819 75 843 95T868 157V602Q868 719 812 784T667 850Q598
850 539 813T439 701T398 541V167Q398 117 419 96T488 75H568V0H73V75H129Q186 75 210 97T234 167V1285Q234 1345 203 1374T111 1404H43V1479Z" />
<glyph unicode="i" glyph-name="i" horiz-adv-x="645" d="M308 1496Q353 1496 387 1462T421 1382Q421 1337 388 1304T309 1271Q263 1271 230 1304T196 1383Q196 1428 230 1462T308 1496ZM49 937L421 948V142Q421 109 437 95Q460 75 495 75H601V0H69V75H168Q212
75 232 96T253 159V749Q253 805 221 833T126 862H49V937Z" />
<glyph unicode="j" glyph-name="j" horiz-adv-x="606" d="M319 1498Q368 1498 400 1467T432 1387Q432 1338 400 1306T320 1274Q274 1274 240 1307T206 1386Q206 1431 240 1464T319 1498ZM419 951V55Q419 -141 312 -270T74 -399Q8 -399 -28 -367T-64 -278Q-64 -229
-35 -199T38 -169Q108 -169 129 -260Q136 -290 143 -297T165 -305Q183 -305 200 -288Q224 -262 238 -201Q256 -117 256 -35V754Q256 809 222 838T121 867H36V937L419 951Z" />
<glyph unicode="k" glyph-name="k" horiz-adv-x="1214" d="M51 1479L409 1496V473L714 738Q758 777 758 806Q758 831 732 845Q693 865 605 867V937H1104V867Q956 859 878 789L663 598L1012 118Q1044 75 1123 75H1175V0H663V75H714Q771 75 790 85T810 109Q810 123
800 137L546 493L409 374V137Q409 108 428 94Q455 75 503 75H568V0H65V75H146Q196 75 220 96T244 152V1308Q244 1353 215 1374Q173 1404 102 1404H51V1479Z" />
<glyph unicode="l" glyph-name="l" horiz-adv-x="645" d="M420 1496V138Q420 110 437 95Q462 75 498 75H597V0H67V75H161Q207 75 229 97T252 159V1299Q252 1349 225 1372Q188 1404 134 1404H50V1479L420 1496Z" />
<glyph unicode="m" glyph-name="m" horiz-adv-x="1821" d="M125 937L393 954Q415 849 422 754Q498 864 574 909T741 954Q838 954 901 903T998 737Q1065 846 1147 900T1326 954Q1454 954 1518 878Q1600 778 1600 620V155Q1600 113 1621 98Q1649 75 1704 75H1751V0H1280V75H1327Q1387
75 1411 95T1435 155V620Q1435 724 1384 781T1250 838Q1187 838 1136 805T1056 709Q1013 620 1013 558V155Q1013 114 1035 95T1103 75H1167V0H690V75H744Q795 75 820 95T845 146V578Q845 715 797 777T666 839Q560 839 503 767Q422 665 422 529V155Q422 112 441
96Q468 75 525 75H573V0H101V75H172Q212 75 233 95T255 146V760Q255 811 229 836T125 868V937Z" />
<glyph unicode="n" glyph-name="n" horiz-adv-x="1251" d="M67 937L378 956Q397 868 406 750Q469 852 554 903T748 954Q841 954 904 918T1005 802T1043 625V169Q1043 118 1066 97T1143 75H1209V0H715V75H762Q828 75 854 96T880 159V560Q880 691 840 754Q784 844
670 844Q557 844 482 753T406 516V169Q406 118 429 97T507 75H572V0H76V75H141Q190 75 215 95T241 145V750Q241 810 209 841T115 872H67V937Z" />
<glyph unicode="o" glyph-name="o" horiz-adv-x="1024" d="M509 965Q698 965 826 829T955 469Q955 315 898 207T734 35T504 -28Q322 -28 196 110T69 468Q69 689 196 827T509 965ZM509 894Q397 894 325 793T253 472Q253 249 324 146T509 43Q626 43 698 146T771
483Q771 700 700 797T509 894Z" />
<glyph unicode="p" glyph-name="p" horiz-adv-x="1176" d="M363 954Q385 849 389 752Q458 862 534 908T700 954Q796 954 883 895T1025 722T1080 465Q1080 236 946 92Q835 -28 680 -28Q592 -28 521 17T395 151V-228Q395 -272 416 -290Q443 -314 491 -314H560V-385H61V-314H130Q178
-314 202 -295T226 -245V741Q226 810 193 838T61 870V937L363 954ZM654 863Q545 863 470 758T394 454Q394 253 467 157T653 61Q759 61 816 143Q889 251 889 459Q889 677 823 770T654 863Z" />
<glyph unicode="q" glyph-name="q" horiz-adv-x="1139" d="M840 802Q891 886 953 954L988 937Q960 819 960 683V-218Q960 -271 981 -289Q1009 -314 1069 -314H1109V-385H618V-314H684Q744 -314 769 -291T794 -218V138Q735 55 663 14T506 -28Q343 -28 225 109T107
456Q107 596 167 713T325 892T535 954Q615 954 687 920T840 802ZM548 887Q443 887 374 787T304 475Q304 259 373 162T546 65Q613 65 671 107T763 233T796 461Q796 628 766 713T676 843T548 887Z" />
<glyph unicode="r" glyph-name="r" horiz-adv-x="909" d="M52 937L389 954V575Q443 762 519 858T707 954Q783 954 828 908T874 783Q874 720 844 685T767 650Q722 650 695 680T667 761Q667 794 683 823Q698 849 698 854Q698 869 679 869Q638 869 586 821Q514 754
475 637Q415 455 415 346V145Q415 111 439 93T521 75H640V0H58V75H151Q198 75 222 93T246 138V735Q246 803 217 834T134 866H52V937Z" />
<glyph unicode="s" glyph-name="s" horiz-adv-x="948" d="M179 353Q241 180 321 114T520 47Q629 47 687 94T746 215Q746 257 725 288T665 335T468 381Q316 411 256 444T163 535T129 661Q129 764 198 848Q287 955 447 955Q569 955 673 878L739 948H780L806 614H739Q695
756 620 818T435 881Q340 881 286 835T232 721Q232 662 282 623Q331 583 474 560Q640 532 690 513Q772 483 817 421T862 268Q862 144 765 58T517 -28Q378 -28 259 64L186 -20H133L113 353H179Z" />
<glyph unicode="t" glyph-name="t" horiz-adv-x="797" d="M313 1319H381V937H684V845H381V244Q381 166 418 125T512 83Q580 83 628 146T684 354H751Q745 167 666 77T461 -14Q345 -14 280 49T214 216V845H51V915Q162 934 220 1008Q306 1119 313 1319Z" />
<glyph unicode="u" glyph-name="u" horiz-adv-x="1251" d="M388 954V333Q388 219 445 157T594 95Q706 95 784 185T863 412V763Q863 811 829 837T696 867V937L1025 954V185Q1025 132 1055 104T1139 75H1198V8L883 0L863 185Q779 86 694 36T522 -14Q395 -14 309
71Q222 155 222 356V763Q222 817 179 845Q149 865 56 867V937L388 954Z" />
<glyph unicode="v" glyph-name="v" horiz-adv-x="1100" d="M26 937H487V869Q395 867 370 853T344 811Q344 789 354 767L602 214L829 750Q834 764 834 778Q834 851 690 869V937H1078V869Q1019 863 984 837T930 767L586 -28H532L164 789Q144 833 116 850T26 869V937Z" />
<glyph unicode="w" glyph-name="w" horiz-adv-x="1593" d="M53 937H464V868H410Q370 868 353 856T336 822Q336 800 346 775L557 245L740 749Q702 829 673 848T571 868V937H1023V868H985Q933 868 914 855T894 817Q894 799 903 775L1116 245L1285 716Q1302 763 1302
796Q1302 829 1276 847T1178 868V937H1543V868Q1475 857 1440 826T1381 729L1109 -28H1051L787 629L551 -28H493L157 800Q141 839 121 852T53 868V937Z" />
<glyph unicode="x" glyph-name="x" horiz-adv-x="1100" d="M48 937H500V868Q390 864 390 829Q390 813 408 788L570 574L728 772Q745 794 745 814Q745 857 624 868V937H1019V868Q876 845 800 749L617 519L906 143Q935 106 969 91T1069 75V0H590V75H624Q677 75 702
86Q718 94 718 106Q718 117 699 143L511 392L360 198Q328 157 328 132Q328 107 350 94Q381 76 455 75V0H48V75Q122 82 162 106Q228 147 281 213L467 449L192 805Q146 865 48 868V937Z" />
<glyph unicode="y" glyph-name="y" horiz-adv-x="1100" d="M46 937H495V869H453Q394 869 373 854T351 809Q351 796 357 783L618 219L812 687Q833 737 833 785Q833 822 804 842T688 869V937H1078V869Q965 858 926 768L580 -39Q491 -244 402 -321Q312 -399 209 -399Q134
-399 89 -358T43 -257Q43 -212 71 -183T141 -154Q179 -154 205 -179T231 -239Q231 -250 227 -269Q223 -284 223 -291Q223 -315 254 -315Q287 -315 328 -291T406 -214T532 20L177 783Q158 823 130 842T46 869V937Z" />
<glyph unicode="z" glyph-name="z" horiz-adv-x="985" d="M151 937H894V877L305 75H592Q691 75 750 137T841 367H908L886 0H98V69L686 866H437Q359 866 321 845T254 774T202 603H128L151 937Z" />
<glyph unicode="{" glyph-name="braceleft" horiz-adv-x="682" d="M680 -131V-167Q512 -145 404 -30T296 231Q296 285 319 400Q342 513 342 548Q342 626 279 689T109 767V809Q219 824 281 888T343 1038Q343 1083 319 1182Q296 1283 296 1338Q296 1489 399 1601T680
1743V1710Q449 1657 449 1461Q449 1416 467 1336Q496 1207 496 1154Q496 1036 420 940T193 791Q335 739 415 640T496 432Q496 376 474 278Q449 158 449 113Q449 25 507 -40T680 -131Z" />
<glyph unicode="|" glyph-name="bar" horiz-adv-x="1241" d="M554 1479H688V-247H554V1479Z" />
<glyph unicode="}" glyph-name="braceright" horiz-adv-x="682" d="M7 -131Q121 -105 180 -40T239 110Q239 157 213 278Q192 376 192 427Q192 539 271 638T494 791Q344 844 268 940T192 1154Q192 1208 221 1336Q239 1417 239 1461Q239 1657 7 1710V1743Q185 1714
288 1602T392 1339Q392 1283 368 1182Q345 1082 345 1038Q345 952 407 888T578 809V767Q472 753 409 690T345 548Q345 513 368 400Q392 285 392 231Q392 86 284 -29T7 -167V-131Z" />
<glyph unicode="~" glyph-name="asciitilde" horiz-adv-x="1241" d="M1115 849H1168Q1165 705 1091 623T905 540Q854 540 797 556T526 662Q374 725 309 725Q160 725 126 542H73Q81 695 152 773T326 851Q378 851 434 834Q538 804 713 728Q807 687 863 671Q895 663
932 663Q1006 663 1055 710T1115 849Z" />
<glyph unicode="&#xa0;" glyph-name="nbspace" horiz-adv-x="588" />
<glyph unicode="&#xa1;" glyph-name="exclamdown" horiz-adv-x="606" d="M311 903Q260 903 225 939T189 1025Q189 1074 225 1109T311 1145Q361 1145 396 1110T432 1026Q432 973 397 938T311 903ZM285 685H338Q339 505 348 416Q363 269 398 69Q438 -154 438 -222Q438
-310 403 -353T311 -397Q252 -397 218 -356T184 -226Q184 -152 224 69Q259 264 271 392T285 685Z" />
<glyph unicode="&#xa2;" glyph-name="cent" horiz-adv-x="1139" d="M801 1479H878L738 962Q858 940 927 871T996 725Q996 667 962 630T877 592Q831 592 798 624T765 699Q765 731 793 768Q817 801 817 816Q817 835 795 854Q765 879 719 889L505 101Q582 59 660
59Q754 59 825 109T953 281L1019 258Q918 -28 628 -28Q543 -28 476 0L368 -394H294L406 17Q310 71 260 129T180 271T149 448Q149 591 218 713T402 901T665 968L801 1479ZM442 150L644 895Q511 893 430 786T348 457Q348 269 442 150Z" />
<glyph unicode="&#xa3;" glyph-name="sterling" horiz-adv-x="1139" d="M527 746H897V661H545Q557 579 557 495Q557 354 514 248Q717 164 829 164Q886 164 922 203T979 342L1047 327Q1020 150 941 61T769 -28Q709 -28 639 2T443 128Q381 50 311 11T181 -28Q91
-28 31 28T-29 168Q-29 249 30 302T184 355Q262 355 419 282L420 316Q420 495 343 661H55V746H302Q239 907 239 1035Q239 1196 355 1304T662 1413Q810 1413 897 1336T984 1146Q984 1075 945 1030T853 985Q809 985 780 1018T751 1104Q751 1155 791 1190Q830 1225
837 1235Q842 1242 842 1252Q842 1285 797 1313T660 1342Q548 1342 480 1281T412 1130Q412 1087 422 1045T472 902Q506 816 527 746ZM389 166Q289 238 250 255T173 272Q115 272 80 240T44 156Q44 106 82 72T181 38Q298 38 389 166Z" />
<glyph unicode="&#xa4;" glyph-name="currency" horiz-adv-x="1241" d="M126 1076L216 1167L347 1037Q409 1084 477 1107T619 1130Q767 1130 896 1037L1026 1167L1116 1076L986 946Q1079 815 1079 667Q1079 517 986 398L1116 269L1026 179L896 308Q831 261 761
238T617 214Q468 214 347 308L216 179L126 269L257 398Q165 541 165 679Q165 818 257 946L126 1076ZM622 1001Q485 1001 389 905T292 671Q292 535 388 439T622 342Q759 342 855 438T952 671Q952 808 855 904T622 1001Z" />
<glyph unicode="&#xa5;" glyph-name="yen" horiz-adv-x="1442" d="M579 677L215 1235Q184 1282 147 1299T21 1319V1387H636V1319H568Q483 1319 457 1306T431 1268Q431 1243 445 1223L802 677L1058 1142Q1075 1173 1075 1211Q1075 1260 1043 1289T951 1319H886V1387H1422V1319Q1329
1319 1277 1287T1173 1165L903 677H1301V602H849V375H1301V300H849V139Q849 108 869 94Q896 75 951 75H1072V0H427V75H554Q606 75 628 92T651 139V300H166V375H651V602H166V677H579Z" />
<glyph unicode="&#xa6;" glyph-name="brokenbar" horiz-adv-x="1241" d="M554 1479H688V876H554V1479ZM554 322H688V-281H554V322Z" />
<glyph unicode="&#xa7;" glyph-name="section" horiz-adv-x="1024" d="M689 198Q820 63 820 -78Q820 -216 727 -305T476 -394Q352 -394 276 -329T200 -176Q200 -124 231 -92T310 -59Q351 -59 378 -86T405 -154Q405 -195 372 -228Q341 -259 341 -273Q341 -290 370
-306Q407 -328 468 -328Q562 -328 621 -274T681 -142Q681 -80 644 -22T441 174Q262 324 198 410T133 607Q133 696 175 770T324 925Q207 1059 207 1197Q207 1329 304 1423T548 1517Q678 1517 753 1455T828 1305Q828 1246 798 1212T725 1178Q681 1178 650 1208T619
1280Q619 1323 658 1362Q686 1389 686 1400Q686 1415 660 1429Q618 1450 556 1450Q464 1450 405 1397T346 1270Q346 1210 386 1145T598 928Q738 803 786 745T855 629T877 512Q877 332 689 198ZM375 874Q252 781 252 684Q252 633 289 577T462 407Q575 312 639 247Q714
308 736 348T759 439Q759 475 742 511Q715 565 643 636L375 874Z" />
<glyph unicode="&#xa8;" glyph-name="dieresis" horiz-adv-x="682" d="M148 1369Q191 1369 221 1340T251 1268Q251 1225 221 1195T148 1164Q106 1164 76 1195T46 1269Q46 1311 76 1340T148 1369ZM533 1366Q576 1366 606 1337T636 1264Q636 1221 606 1191T533 1160Q490
1160 460 1190T429 1263Q429 1306 459 1336T533 1366Z" />
<glyph unicode="&#xa9;" glyph-name="copyright" horiz-adv-x="1509" d="M754 1413Q947 1413 1114 1317T1377 1053T1474 692Q1474 499 1378 332T1114 69T754 -28Q562 -28 395 68T132 332T35 692Q35 885 131 1052T395 1316T754 1413ZM754 1350Q578 1350 426 1262T185
1022T97 693Q97 517 185 365T425 124T754 36Q930 36 1082 124T1323 364T1411 693Q1411 870 1323 1022T1083 1262T754 1350ZM1110 1155L1130 872H1090Q1018 1111 782 1111Q635 1111 547 1009T458 709Q458 506 549 402T792 298Q991 298 1110 462L1148 443Q1008 237
758 237Q626 237 518 296T350 461T289 691Q289 884 432 1020T788 1156Q867 1156 982 1118Q1007 1110 1019 1110Q1036 1110 1047 1118T1069 1155H1110Z" />
<glyph unicode="&#xaa;" glyph-name="ordfeminine" horiz-adv-x="684" d="M646 988L681 940Q627 902 577 902Q532 902 501 921T444 991Q397 947 344 925T231 902Q133 902 82 941T31 1041Q31 1115 107 1167Q217 1242 433 1269V1348Q433 1392 399 1422T310 1453Q259
1453 220 1432Q196 1419 196 1405Q196 1397 207 1383Q231 1356 231 1334Q231 1306 209 1287T150 1267Q112 1267 87 1289T62 1346Q62 1406 137 1458T337 1510Q445 1510 506 1465Q566 1419 566 1355V1055Q566 1010 577 992T606 974Q618 974 646 988ZM433 1215Q290
1198 223 1149Q178 1117 178 1054Q178 1010 200 986T259 961Q321 961 377 1009T433 1143V1215Z" />
<glyph unicode="&#xab;" glyph-name="guillemotleft" horiz-adv-x="872" d="M324 995H414L210 559L414 125H324L-1 559L324 995ZM731 995H821L617 559L821 125H731L414 559L731 995Z" />
<glyph unicode="&#xac;" glyph-name="logicalnot" horiz-adv-x="1241" d="M69 1001H1173V393H1041V867H69V1001Z" />
<glyph unicode="&#xad;" glyph-name="hyphen" horiz-adv-x="682" d="M137 864H542V712H137V864Z" />
<glyph unicode="&#xae;" glyph-name="registered" horiz-adv-x="1509" d="M754 1413Q947 1413 1114 1317T1377 1053T1474 692Q1474 499 1378 332T1114 69T754 -28Q562 -28 395 68T132 332T35 692Q35 885 131 1052T395 1316T754 1413ZM754 1350Q578 1350 426 1262T185
1022T97 693Q97 517 185 365T425 124T754 36Q930 36 1082 124T1323 364T1411 693Q1411 870 1323 1022T1083 1262T754 1350ZM356 1136H747Q890 1136 969 1071T1049 907Q1049 822 993 766T824 683L1036 380Q1073 328 1098 311T1158 292V258H972L674 669H597V380Q597
329 619 311T716 292V258H344V292Q393 292 413 304T444 340Q450 355 450 432V1000Q450 1058 431 1078T356 1099V1136ZM597 713H627Q761 713 823 763T886 898Q886 979 828 1034T683 1090Q644 1090 597 1075V713Z" />
<glyph unicode="&#xaf;" glyph-name="overscore" horiz-adv-x="1024" d="M-12 1735H1036V1633H-12V1735Z" />
<glyph unicode="0;" glyph-name="degree" horiz-adv-x="819" d="M410 1413Q539 1413 630 1322T721 1101Q721 972 630 881T410 789Q280 789 189 880T98 1101Q98 1230 189 1321T410 1413ZM410 1292Q331 1292 275 1236T219 1101Q219 1022 275 966T410 910Q489
910 544 966T600 1101Q600 1180 545 1236T410 1292Z" />
<glyph unicode="1;" glyph-name="plusminus" horiz-adv-x="1124" d="M8 141V222H506V640H8V722H506V1219H586V722H1086V640H586V222H1087L1086 141H8Z" />
<glyph unicode="2;" glyph-name="twosuperior" horiz-adv-x="682" d="M176 817H426Q462 817 478 833T515 927H552L535 698H37V740L286 989Q415 1117 415 1232Q415 1289 374 1327T269 1366Q211 1366 173 1339T135 1283Q135 1262 175 1246Q218 1229 218 1191Q218
1159 198 1139T145 1118Q106 1118 80 1147T53 1225Q53 1302 122 1357T316 1413Q438 1413 497 1365T556 1239Q556 1182 515 1121T318 935Q222 858 176 817Z" />
<glyph unicode="3;" glyph-name="threesuperior" horiz-adv-x="682" d="M447 1062Q526 1043 565 999T604 884Q604 798 533 741T339 683Q217 683 149 735T80 855Q80 894 102 918T160 942Q191 942 209 923T227 872Q227 847 208 819Q194 797 194 785Q194 765
220 750Q256 728 314 728Q390 728 426 766T463 892Q463 968 435 1005Q406 1041 356 1041L313 1038L273 1036Q241 1036 230 1043T219 1064Q219 1077 229 1084T264 1092L311 1089Q346 1085 362 1085Q410 1085 435 1117Q460 1148 460 1221Q460 1298 426 1333T323 1369Q272
1369 246 1352T220 1311Q220 1299 231 1279Q243 1256 243 1240Q243 1215 225 1199T175 1182Q144 1182 125 1202T106 1258Q106 1317 171 1365T347 1413Q456 1413 520 1359T584 1227Q584 1175 550 1134T447 1062Z" />
<glyph unicode="4;" glyph-name="acute" horiz-adv-x="682" d="M228 1094L203 1119L374 1364Q444 1466 472 1488T530 1510Q563 1510 588 1486T613 1430Q613 1380 542 1327L228 1094Z" />
<glyph unicode="5;" glyph-name="mu1" horiz-adv-x="1180" d="M196 916H360V383Q360 238 378 185Q391 145 426 120T502 95Q561 95 620 128T738 229V916H903V262Q903 162 911 131Q918 107 935 94T971 80Q997 80 1015 102Q1041 133 1052 204H1094Q1085 83 1031
28T896 -28Q818 -28 776 30Q746 73 738 162Q651 60 576 16T424 -28Q371 -28 332 -7Q304 9 269 57Q268 26 268 11Q268 -68 302 -228Q315 -289 315 -332Q315 -380 287 -411T221 -442Q184 -442 159 -413T134 -333Q134 -287 163 -168Q183 -88 185 -64Q197 39 197 115Q197
120 196 190V916Z" />
<glyph unicode="6;" glyph-name="paragraph" horiz-adv-x="1241" d="M1111 1479V1440H1069Q1014 1440 991 1425T959 1378T949 1231V-385H874V1422H681V-385H605V696Q407 705 311 748T161 881T107 1090Q107 1210 156 1284Q220 1384 319 1431T574 1479H1111Z" />
<glyph unicode="7;" glyph-name="middot" horiz-adv-x="682" d="M615 851Q658 851 688 821T718 750Q718 707 688 676T615 645Q573 645 543 676T513 750Q513 792 543 821T615 851Z" />
<glyph unicode="8;" glyph-name="cedilla" horiz-adv-x="682" d="M318 -39Q398 -52 439 -93T481 -188Q481 -273 411 -331T208 -389Q170 -389 104 -385V-308H152Q240 -308 281 -277T322 -200Q322 -134 221 -117L243 10H324L318 -39Z" />
<glyph unicode="9;" glyph-name="onesuperior" horiz-adv-x="682" d="M125 1336Q221 1338 278 1355T395 1413H409V785Q409 767 420 757T453 747H552V698H139V747H226Q265 747 279 763T294 821V1229Q294 1263 278 1276T213 1290H125V1336Z" />
<glyph unicode="a;" glyph-name="ordmasculine" horiz-adv-x="614" d="M305 1510Q434 1510 517 1425T601 1207Q601 1070 517 986T302 902Q179 902 96 987T13 1206Q13 1339 96 1424T305 1510ZM305 1455Q240 1455 199 1396T157 1208Q157 1078 199 1018T305 957Q373
957 415 1017T457 1214Q457 1341 416 1398T305 1455Z" />
<glyph unicode="b;" glyph-name="guillemotright" horiz-adv-x="872" d="M480 995L805 559L480 125H390L593 559L390 995H480ZM72 995L390 559L72 125H-17L187 559L-17 995H72Z" />
<glyph unicode="c;" glyph-name="onequarter" horiz-adv-x="1706" d="M167 1337Q263 1339 320 1356T437 1414H451V786Q451 768 462 758T495 748H594V699H181V748H268Q307 748 321 764T336 822V1230Q336 1264 320 1277T255 1291H167V1337ZM1307 1387H1394L438
0H353L1307 1387ZM1306 714H1340V220H1475V161H1340V104Q1340 73 1355 60T1402 46H1453V-1H1103V46H1158Q1191 46 1207 59T1223 97V161H887V220L1306 714ZM1223 546L950 220H1223V546Z" />
<glyph unicode="d;" glyph-name="onehalf" horiz-adv-x="1706" d="M167 1337Q263 1339 320 1356T437 1414H451V786Q451 768 462 758T495 748H594V699H181V748H268Q307 748 321 764T336 822V1230Q336 1264 320 1277T255 1291H167V1337ZM1252 1387H1339L383
0H298L1252 1387ZM1111 118H1361Q1397 118 1413 134T1450 228H1487L1470 -1H972V41L1221 290Q1350 418 1350 533Q1350 590 1309 628T1204 667Q1146 667 1108 640T1070 584Q1070 563 1110 547Q1153 530 1153 492Q1153 460 1133 440T1080 419Q1041 419 1015 448T988
526Q988 603 1057 658T1251 714Q1373 714 1432 666T1491 540Q1491 483 1450 422T1253 236Q1157 159 1111 118Z" />
<glyph unicode="e;" glyph-name="threequarters" horiz-adv-x="1706" d="M554 1062Q633 1043 672 999T711 884Q711 798 640 741T446 683Q324 683 256 735T187 855Q187 894 209 918T267 942Q298 942 316 923T334 872Q334 847 315 819Q301 797 301 785Q301 765
327 750Q363 728 421 728Q497 728 533 766T570 892Q570 968 542 1005Q513 1041 463 1041L420 1038L380 1036Q348 1036 337 1043T326 1064Q326 1077 336 1084T371 1092L418 1089Q453 1085 469 1085Q517 1085 542 1117Q567 1148 567 1221Q567 1298 533 1333T430 1369Q379
1369 353 1352T327 1311Q327 1299 338 1279Q350 1256 350 1240Q350 1215 332 1199T282 1182Q251 1182 232 1202T213 1258Q213 1317 278 1365T454 1413Q563 1413 627 1359T691 1227Q691 1175 657 1134T554 1062ZM1335 1387H1422L466 0H381L1335 1387ZM1331 715H1365V221H1500V162H1365V105Q1365
74 1380 61T1427 47H1478V0H1128V47H1183Q1216 47 1232 60T1248 98V162H912V221L1331 715ZM1248 547L975 221H1248V547Z" />
<glyph unicode="f;" glyph-name="questiondown" horiz-adv-x="909" d="M508 903Q458 903 423 938T388 1022Q388 1073 423 1109T508 1145Q559 1145 594 1110T629 1021Q629 972 594 938T508 903ZM485 687H537Q537 566 525 500T493 394T393 249Q331 168 305 96T279
-64Q279 -182 345 -254T508 -327Q591 -327 646 -286T702 -201Q702 -178 664 -148Q604 -102 604 -47Q604 0 635 32T713 64Q769 64 807 19T846 -99Q846 -214 741 -305T474 -397Q308 -397 201 -295T93 -46Q93 21 111 76T161 172T313 321Q422 420 451 483T485 687Z"
/>
<glyph unicode="0;" glyph-name="Agrave" horiz-adv-x="1479" d="M715 1510H782L1313 157Q1345 75 1444 75H1490V0H900V75H947Q1039 75 1077 95Q1103 109 1103 138Q1103 155 1096 174L973 488H389L320 308Q293 236 293 194Q293 145 338 110T471 75H521V0H-15V75Q71
75 121 112T213 255L715 1510ZM686 1225L421 566H944L686 1225ZM939 1612L916 1587L638 1790Q528 1871 528 1922Q528 1952 553 1977T612 2003Q667 2003 712 1939L939 1612Z" />
<glyph unicode="1;" glyph-name="Aacute" horiz-adv-x="1479" d="M715 1510H782L1313 157Q1345 75 1444 75H1490V0H900V75H947Q1039 75 1077 95Q1103 109 1103 138Q1103 155 1096 174L973 488H389L320 308Q293 236 293 194Q293 145 338 110T471 75H521V0H-15V75Q71
75 121 112T213 255L715 1510ZM686 1225L421 566H944L686 1225ZM627 1593L602 1618L773 1863Q843 1965 871 1987T929 2009Q962 2009 987 1985T1012 1929Q1012 1879 941 1826L627 1593Z" />
<glyph unicode="2;" glyph-name="Acircumflex" horiz-adv-x="1479" d="M715 1510H782L1313 157Q1345 75 1444 75H1490V0H900V75H947Q1039 75 1077 95Q1103 109 1103 138Q1103 155 1096 174L973 488H389L320 308Q293 236 293 194Q293 145 338 110T471 75H521V0H-15V75Q71
75 121 112T213 255L715 1510ZM686 1225L421 566H944L686 1225ZM698 1990H780L1019 1645H955L738 1844L524 1645H460L698 1990Z" />
<glyph unicode="3;" glyph-name="Atilde" horiz-adv-x="1479" d="M715 1510H782L1313 157Q1345 75 1444 75H1490V0H900V75H947Q1039 75 1077 95Q1103 109 1103 138Q1103 155 1096 174L973 488H389L320 308Q293 236 293 194Q293 145 338 110T471 75H521V0H-15V75Q71
75 121 112T213 255L715 1510ZM686 1225L421 566H944L686 1225ZM1045 1888H1079Q1078 1782 1021 1721T881 1659Q819 1659 676 1711Q571 1748 535 1748Q461 1748 436 1659H402Q423 1885 601 1885Q667 1885 791 1841Q917 1796 948 1796Q1019 1796 1045 1888Z" />
<glyph unicode="4;" glyph-name="Adieresis" horiz-adv-x="1479" d="M715 1510H782L1313 157Q1345 75 1444 75H1490V0H900V75H947Q1039 75 1077 95Q1103 109 1103 138Q1103 155 1096 174L973 488H389L320 308Q293 236 293 194Q293 145 338 110T471 75H521V0H-15V75Q71
75 121 112T213 255L715 1510ZM686 1225L421 566H944L686 1225ZM547 1863Q590 1863 620 1834T650 1762Q650 1719 620 1689T547 1658Q505 1658 475 1689T445 1763Q445 1805 475 1834T547 1863ZM932 1860Q975 1860 1005 1831T1035 1758Q1035 1715 1005 1685T932 1654Q889
1654 859 1684T828 1757Q828 1800 858 1830T932 1860Z" />
<glyph unicode="5;" glyph-name="Aring" horiz-adv-x="1479" d="M715 1510H782L1313 157Q1345 75 1444 75H1490V0H900V75H947Q1039 75 1077 95Q1103 109 1103 138Q1103 155 1096 174L973 488H389L320 308Q293 236 293 194Q293 145 338 110T471 75H521V0H-15V75Q71
75 121 112T213 255L715 1510ZM686 1225L421 566H944L686 1225ZM738 2019Q822 2019 883 1958T944 1812Q944 1725 883 1664T735 1602Q649 1602 588 1662T527 1809Q527 1896 588 1957T738 2019ZM737 1937Q684 1937 647 1900T609 1809Q609 1757 646 1721T736 1684Q787
1684 824 1721T862 1811Q862 1864 826 1900T737 1937Z" />
<glyph unicode="6;" glyph-name="AE" horiz-adv-x="2048" d="M589 1479H1874L1904 968H1834Q1781 1404 1449 1404H1267Q1225 1404 1204 1384T1183 1329V800H1273Q1498 800 1511 1100H1579V412H1511Q1507 584 1444 656T1267 729H1183V145Q1183 110 1201 95Q1225
75 1267 75H1459Q1568 75 1650 124T1789 275T1874 566H1943L1922 0H740V75H884Q927 75 950 96T973 151V639H554L358 277Q333 230 333 181Q333 132 365 104T451 75H477V0H43V75Q104 77 152 117T271 286L815 1279Q839 1323 839 1357Q839 1380 822 1392T757 1404H589V1479ZM973
1404L589 718H973V1404Z" />
<glyph unicode="7;" glyph-name="Ccedilla" horiz-adv-x="1479" d="M1185 1364L1254 1507H1317L1343 912H1276Q1210 1163 1110 1282Q986 1431 814 1431Q628 1431 511 1265T394 703Q394 370 528 195Q642 47 848 47Q1028 47 1150 162T1309 511H1380Q1349 247
1199 105T821 -37Q636 -37 482 56T235 323T142 706Q142 927 237 1121T482 1412T803 1510Q899 1510 989 1477T1185 1364ZM819 -39Q899 -52 940 -93T982 -188Q982 -273 912 -331T709 -389Q671 -389 605 -385V-308H653Q741 -308 782 -277T823 -200Q823 -134 722 -117L744
10H825L819 -39Z" />
<glyph unicode="8;" glyph-name="Egrave" horiz-adv-x="1479" d="M134 1479H1306L1334 980H1267Q1227 1216 1141 1310T915 1404H625Q590 1404 572 1385T554 1327V800H681Q783 800 846 873T915 1097H984V412H915Q910 582 846 655T670 729H554V141Q554 109 575
92T647 75H876Q1249 75 1306 551H1378L1353 0H134V75H235Q294 75 318 95T342 155V1327Q342 1366 321 1385T255 1404H134V1479ZM939 1612L916 1587L638 1790Q528 1871 528 1922Q528 1952 553 1977T612 2003Q667 2003 712 1939L939 1612Z" />
<glyph unicode="9;" glyph-name="Eacute" horiz-adv-x="1479" d="M134 1479H1306L1334 980H1267Q1227 1216 1141 1310T915 1404H625Q590 1404 572 1385T554 1327V800H681Q783 800 846 873T915 1097H984V412H915Q910 582 846 655T670 729H554V141Q554 109 575
92T647 75H876Q1249 75 1306 551H1378L1353 0H134V75H235Q294 75 318 95T342 155V1327Q342 1366 321 1385T255 1404H134V1479ZM627 1587L602 1612L773 1857Q843 1959 871 1981T929 2003Q962 2003 987 1979T1012 1923Q1012 1873 941 1820L627 1587Z" />
<glyph unicode="a;" glyph-name="Ecircumflex" horiz-adv-x="1479" d="M134 1479H1306L1334 980H1267Q1227 1216 1141 1310T915 1404H625Q590 1404 572 1385T554 1327V800H681Q783 800 846 873T915 1097H984V412H915Q910 582 846 655T670 729H554V141Q554
109 575 92T647 75H876Q1249 75 1306 551H1378L1353 0H134V75H235Q294 75 318 95T342 155V1327Q342 1366 321 1385T255 1404H134V1479ZM698 1990H780L1019 1645H955L738 1844L524 1645H460L698 1990Z" />
<glyph unicode="b;" glyph-name="Edieresis" horiz-adv-x="1479" d="M134 1479H1306L1334 980H1267Q1227 1216 1141 1310T915 1404H625Q590 1404 572 1385T554 1327V800H681Q783 800 846 873T915 1097H984V412H915Q910 582 846 655T670 729H554V141Q554 109
575 92T647 75H876Q1249 75 1306 551H1378L1353 0H134V75H235Q294 75 318 95T342 155V1327Q342 1366 321 1385T255 1404H134V1479ZM547 1863Q590 1863 620 1834T650 1762Q650 1719 620 1689T547 1658Q505 1658 475 1689T445 1763Q445 1805 475 1834T547 1863ZM932
1860Q975 1860 1005 1831T1035 1758Q1035 1715 1005 1685T932 1654Q889 1654 859 1684T828 1757Q828 1800 858 1830T932 1860Z" />
<glyph unicode="c;" glyph-name="Igrave" horiz-adv-x="834" d="M76 1479H758V1404H641Q563 1404 543 1385T522 1302V182Q522 115 540 98Q564 75 627 75H758V0H76V75H205Q273 75 293 95T313 182V1302Q313 1366 295 1381Q267 1404 192 1404H76V1479ZM616 1612L593
1587L315 1790Q205 1871 205 1922Q205 1952 230 1977T289 2003Q344 2003 389 1939L616 1612Z" />
<glyph unicode="d;" glyph-name="Iacute" horiz-adv-x="834" d="M76 1479H758V1404H641Q563 1404 543 1385T522 1302V182Q522 115 540 98Q564 75 627 75H758V0H76V75H205Q273 75 293 95T313 182V1302Q313 1366 295 1381Q267 1404 192 1404H76V1479ZM304 1587L279
1612L450 1857Q520 1959 548 1981T606 2003Q639 2003 664 1979T689 1923Q689 1873 618 1820L304 1587Z" />
<glyph unicode="e;" glyph-name="Icircumflex" horiz-adv-x="834" d="M76 1479H758V1404H641Q563 1404 543 1385T522 1302V182Q522 115 540 98Q564 75 627 75H758V0H76V75H205Q273 75 293 95T313 182V1302Q313 1366 295 1381Q267 1404 192 1404H76V1479ZM375
1990H457L696 1645H632L415 1844L201 1645H137L375 1990Z" />
<glyph unicode="f;" glyph-name="Idieresis" horiz-adv-x="834" d="M76 1479H758V1404H641Q563 1404 543 1385T522 1302V182Q522 115 540 98Q564 75 627 75H758V0H76V75H205Q273 75 293 95T313 182V1302Q313 1366 295 1381Q267 1404 192 1404H76V1479ZM224
1863Q267 1863 297 1834T327 1762Q327 1719 297 1689T224 1658Q182 1658 152 1689T122 1763Q122 1805 152 1834T224 1863ZM609 1860Q652 1860 682 1831T712 1758Q712 1715 682 1685T609 1654Q566 1654 536 1684T505 1757Q505 1800 535 1830T609 1860Z" />
<glyph unicode="&#xd0;" glyph-name="Eth" horiz-adv-x="1593" d="M32 1404V1479H796Q966 1479 1085 1419Q1233 1343 1336 1166T1440 747Q1440 547 1378 387Q1331 264 1234 172T996 34Q891 0 716 0H32V75H172Q225 75 245 92T266 145V696H32V784H266V1336Q266 1367
244 1385T183 1404H32ZM481 696V148Q481 112 505 94T590 75H716Q885 75 1012 162Q1095 220 1138 325Q1197 467 1197 717Q1197 1087 1068 1259Q959 1404 737 1404H568Q523 1404 502 1385T481 1328V784H737V696H481Z" />
<glyph unicode="&#xd1;" glyph-name="Ntilde" horiz-adv-x="1669" d="M84 1479H437L1329 317V1158Q1329 1285 1271 1346Q1218 1402 1113 1404V1479H1630V1404Q1551 1404 1512 1382T1444 1302T1415 1175V0H1321L398 1209V317Q398 196 459 137T648 75V0H84V75Q190
79 252 144T314 305V1308L297 1326Q247 1380 226 1390Q197 1404 151 1404H84V1479ZM1197 1888H1231Q1230 1782 1173 1721T1033 1659Q971 1659 828 1711Q723 1748 687 1748Q613 1748 588 1659H554Q575 1885 753 1885Q819 1885 943 1841Q1069 1796 1100 1796Q1171
1796 1197 1888Z" />
<glyph unicode="&#xd2;" glyph-name="Ograve" horiz-adv-x="1593" d="M784 1510Q971 1510 1134 1412T1390 1137T1483 739Q1483 518 1390 340T1135 63T790 -37Q612 -37 456 60T206 339T111 742Q111 960 202 1135T453 1410T784 1510ZM800 1433Q605 1433 484 1271T363
743Q363 346 487 194T794 42Q922 42 1019 111T1173 330T1231 724Q1231 990 1177 1139T1023 1361T800 1433ZM996 1612L973 1587L695 1790Q585 1871 585 1922Q585 1952 610 1977T669 2003Q724 2003 769 1939L996 1612Z" />
<glyph unicode="&#xd3;" glyph-name="Oacute" horiz-adv-x="1593" d="M784 1510Q971 1510 1134 1412T1390 1137T1483 739Q1483 518 1390 340T1135 63T790 -37Q612 -37 456 60T206 339T111 742Q111 960 202 1135T453 1410T784 1510ZM800 1433Q605 1433 484 1271T363
743Q363 346 487 194T794 42Q922 42 1019 111T1173 330T1231 724Q1231 990 1177 1139T1023 1361T800 1433ZM628 1587L603 1612L774 1857Q844 1959 872 1981T930 2003Q963 2003 988 1979T1013 1923Q1013 1873 942 1820L628 1587Z" />
<glyph unicode="&#xd4;" glyph-name="Ocircumflex" horiz-adv-x="1593" d="M784 1510Q971 1510 1134 1412T1390 1137T1483 739Q1483 518 1390 340T1135 63T790 -37Q612 -37 456 60T206 339T111 742Q111 960 202 1135T453 1410T784 1510ZM800 1433Q605 1433 484
1271T363 743Q363 346 487 194T794 42Q922 42 1019 111T1173 330T1231 724Q1231 990 1177 1139T1023 1361T800 1433ZM755 1990H837L1076 1645H1012L795 1844L581 1645H517L755 1990Z" />
<glyph unicode="&#xd5;" glyph-name="Otilde" horiz-adv-x="1593" d="M784 1510Q971 1510 1134 1412T1390 1137T1483 739Q1483 518 1390 340T1135 63T790 -37Q612 -37 456 60T206 339T111 742Q111 960 202 1135T453 1410T784 1510ZM800 1433Q605 1433 484 1271T363
743Q363 346 487 194T794 42Q922 42 1019 111T1173 330T1231 724Q1231 990 1177 1139T1023 1361T800 1433ZM1103 1888H1137Q1136 1782 1079 1721T939 1659Q877 1659 734 1711Q629 1748 593 1748Q519 1748 494 1659H460Q481 1885 659 1885Q725 1885 849 1841Q975
1796 1006 1796Q1077 1796 1103 1888Z" />
<glyph unicode="&#xd6;" glyph-name="Odieresis" horiz-adv-x="1593" d="M784 1510Q971 1510 1134 1412T1390 1137T1483 739Q1483 518 1390 340T1135 63T790 -37Q612 -37 456 60T206 339T111 742Q111 960 202 1135T453 1410T784 1510ZM800 1433Q605 1433 484 1271T363
743Q363 346 487 194T794 42Q922 42 1019 111T1173 330T1231 724Q1231 990 1177 1139T1023 1361T800 1433ZM604 1863Q647 1863 677 1834T707 1762Q707 1719 677 1689T604 1658Q562 1658 532 1689T502 1763Q502 1805 532 1834T604 1863ZM989 1860Q1032 1860 1062
1831T1092 1758Q1092 1715 1062 1685T989 1654Q946 1654 916 1684T885 1757Q885 1800 915 1830T989 1860Z" />
<glyph unicode="&#xd7;" glyph-name="multiply" horiz-adv-x="1241" d="M208 1200L621 787L1034 1200L1128 1106L715 693L1127 280L1033 186L621 599L209 187L115 281L527 693L114 1106L208 1200Z" />
<glyph unicode="&#xd8;" glyph-name="Oslash" horiz-adv-x="1593" d="M279 222Q111 446 111 741Q111 961 202 1136T453 1411T788 1510Q913 1510 1037 1460T1253 1321L1394 1479H1493L1303 1266Q1483 1040 1483 740Q1483 518 1390 341T1135 63T790 -37Q663 -37
543 15T327 165L181 0H82L279 222ZM406 366L1150 1204Q1101 1310 1006 1371T799 1433Q605 1433 484 1271T362 736Q362 517 406 366ZM1181 1128L435 286Q482 171 577 107T794 42Q922 42 1019 111T1173 330T1231 726Q1231 981 1181 1128Z" />
<glyph unicode="&#xd9;" glyph-name="Ugrave" horiz-adv-x="1669" d="M54 1479H737V1404H600Q545 1404 523 1386T501 1331V496Q501 365 524 298Q558 199 648 140T885 81Q1087 81 1193 185T1299 465V1144Q1299 1234 1287 1280T1251 1353T1191 1391T1071 1404V1479H1630V1404H1590Q1496
1404 1450 1354T1404 1207V480Q1404 242 1268 115Q1115 -28 861 -28Q641 -28 515 34T332 214Q289 303 289 438V1331Q289 1365 266 1384T195 1404H54V1479ZM1034 1612L1011 1587L733 1790Q623 1871 623 1922Q623 1952 648 1977T707 2003Q762 2003 807 1939L1034
1612Z" />
<glyph unicode="&#xda;" glyph-name="Uacute" horiz-adv-x="1669" d="M54 1479H737V1404H600Q545 1404 523 1386T501 1331V496Q501 365 524 298Q558 199 648 140T885 81Q1087 81 1193 185T1299 465V1144Q1299 1234 1287 1280T1251 1353T1191 1391T1071 1404V1479H1630V1404H1590Q1496
1404 1450 1354T1404 1207V480Q1404 242 1268 115Q1115 -28 861 -28Q641 -28 515 34T332 214Q289 303 289 438V1331Q289 1365 266 1384T195 1404H54V1479ZM782 1587L757 1612L928 1857Q998 1959 1026 1981T1084 2003Q1117 2003 1142 1979T1167 1923Q1167 1873 1096
1820L782 1587Z" />
<glyph unicode="&#xdb;" glyph-name="Ucircumflex" horiz-adv-x="1669" d="M54 1479H737V1404H600Q545 1404 523 1386T501 1331V496Q501 365 524 298Q558 199 648 140T885 81Q1087 81 1193 185T1299 465V1144Q1299 1234 1287 1280T1251 1353T1191 1391T1071 1404V1479H1630V1404H1590Q1496
1404 1450 1354T1404 1207V480Q1404 242 1268 115Q1115 -28 861 -28Q641 -28 515 34T332 214Q289 303 289 438V1331Q289 1365 266 1384T195 1404H54V1479ZM833 1990H915L1154 1645H1090L873 1844L659 1645H595L833 1990Z" />
<glyph unicode="&#xdc;" glyph-name="Udieresis" horiz-adv-x="1669" d="M54 1479H737V1404H600Q545 1404 523 1386T501 1331V496Q501 365 524 298Q558 199 648 140T885 81Q1087 81 1193 185T1299 465V1144Q1299 1234 1287 1280T1251 1353T1191 1391T1071 1404V1479H1630V1404H1590Q1496
1404 1450 1354T1404 1207V480Q1404 242 1268 115Q1115 -28 861 -28Q641 -28 515 34T332 214Q289 303 289 438V1331Q289 1365 266 1384T195 1404H54V1479ZM682 1863Q725 1863 755 1834T785 1762Q785 1719 755 1689T682 1658Q640 1658 610 1689T580 1763Q580 1805
610 1834T682 1863ZM1067 1860Q1110 1860 1140 1831T1170 1758Q1170 1715 1140 1685T1067 1654Q1024 1654 994 1684T963 1757Q963 1800 993 1830T1067 1860Z" />
<glyph unicode="&#xdd;" glyph-name="Yacute" horiz-adv-x="1442" d="M-12 1479H636V1404H564Q474 1404 447 1390T420 1351Q420 1325 434 1304L810 721L1080 1218Q1098 1251 1098 1290Q1098 1342 1064 1373T967 1404H898V1479H1462V1404Q1365 1404 1309 1370T1201
1242L860 617V149Q860 112 881 96Q910 75 967 75H1094V0H415V75H549Q603 75 627 94T651 149V604L192 1319Q162 1365 122 1383T-12 1404V1479ZM648 1587L623 1612L794 1857Q864 1959 892 1981T950 2003Q983 2003 1008 1979T1033 1923Q1033 1873 962 1820L648 1587Z"
/>
<glyph unicode="&#xde;" glyph-name="Thorn" horiz-adv-x="1366" d="M487 357V162Q487 118 508 99Q536 75 583 75H753V0H42V75H190Q234 75 254 92T275 140V1319Q275 1364 249 1384T151 1404H42V1479H753V1404H611Q539 1404 513 1384T487 1319V1170H771Q1018 1170
1148 1058T1278 764Q1278 583 1158 488Q993 357 753 357H487ZM487 430H688Q879 430 963 509T1048 771Q1048 891 1012 962T910 1066T709 1098H487V430Z" />
<glyph unicode="&#xdf;" glyph-name="germandbls" horiz-adv-x="1176" d="M785 881Q936 848 1014 744T1093 473Q1093 340 1038 221T904 44T739 -14Q654 -14 602 35T549 159Q549 211 577 244T644 277Q680 277 707 250T734 185Q734 149 703 116Q686 98 686 85Q686
72 697 64T730 55Q798 55 848 139T899 431Q899 669 830 756T604 847V910Q656 910 723 931T817 995Q854 1055 854 1160Q854 1309 799 1374T640 1439Q520 1439 468 1374Q399 1291 399 1138V179Q399 124 420 101T491 75V0H62V75H129Q183 75 205 92T228 140V1102Q228
1297 334 1407Q440 1517 625 1517Q809 1517 916 1421T1024 1187Q1024 1095 970 1020T785 881Z" />
<glyph unicode="&#xe0;" glyph-name="agrave" horiz-adv-x="1139" d="M1057 103L1093 47Q1020 -28 931 -28Q863 -28 817 9T735 139Q640 39 568 6T395 -28Q251 -28 176 34T101 193Q101 339 272 435T729 564V706Q729 782 668 836T513 890Q426 890 363 854Q318 827
318 801Q318 786 342 754Q371 714 371 683Q371 638 342 610T266 581Q216 581 183 615T149 702Q149 801 260 883T553 965Q720 965 808 893Q896 820 896 716V204Q896 136 918 104Q940 71 975 71Q1014 71 1057 103ZM729 498Q475 463 369 384Q290 324 290 214Q290 137
331 94T438 50Q556 50 642 139T729 364V498ZM765 1119L742 1094L464 1297Q354 1378 354 1429Q354 1459 379 1484T438 1510Q493 1510 538 1446L765 1119Z" />
<glyph unicode="&#xe1;" glyph-name="aacute" horiz-adv-x="1139" d="M1057 103L1093 47Q1020 -28 931 -28Q863 -28 817 9T735 139Q640 39 568 6T395 -28Q251 -28 176 34T101 193Q101 339 272 435T729 564V706Q729 782 668 836T513 890Q426 890 363 854Q318 827
318 801Q318 786 342 754Q371 714 371 683Q371 638 342 610T266 581Q216 581 183 615T149 702Q149 801 260 883T553 965Q720 965 808 893Q896 820 896 716V204Q896 136 918 104Q940 71 975 71Q1014 71 1057 103ZM729 498Q475 463 369 384Q290 324 290 214Q290 137
331 94T438 50Q556 50 642 139T729 364V498ZM448 1094L423 1119L594 1364Q664 1466 692 1488T750 1510Q783 1510 808 1486T833 1430Q833 1380 762 1327L448 1094Z" />
<glyph unicode="&#xe2;" glyph-name="acircumflex" horiz-adv-x="1139" d="M1057 103L1093 47Q1020 -28 931 -28Q863 -28 817 9T735 139Q640 39 568 6T395 -28Q251 -28 176 34T101 193Q101 339 272 435T729 564V706Q729 782 668 836T513 890Q426 890 363 854Q318
827 318 801Q318 786 342 754Q371 714 371 683Q371 638 342 610T266 581Q216 581 183 615T149 702Q149 801 260 883T553 965Q720 965 808 893Q896 820 896 716V204Q896 136 918 104Q940 71 975 71Q1014 71 1057 103ZM729 498Q475 463 369 384Q290 324 290 214Q290
137 331 94T438 50Q556 50 642 139T729 364V498ZM499 1496H581L820 1151H756L539 1350L325 1151H261L499 1496Z" />
<glyph unicode="&#xe3;" glyph-name="atilde" horiz-adv-x="1139" d="M1057 103L1093 47Q1020 -28 931 -28Q863 -28 817 9T735 139Q640 39 568 6T395 -28Q251 -28 176 34T101 193Q101 339 272 435T729 564V706Q729 782 668 836T513 890Q426 890 363 854Q318 827
318 801Q318 786 342 754Q371 714 371 683Q371 638 342 610T266 581Q216 581 183 615T149 702Q149 801 260 883T553 965Q720 965 808 893Q896 820 896 716V204Q896 136 918 104Q940 71 975 71Q1014 71 1057 103ZM729 498Q475 463 369 384Q290 324 290 214Q290 137
331 94T438 50Q556 50 642 139T729 364V498ZM847 1394H881Q880 1288 823 1227T683 1165Q621 1165 478 1217Q373 1254 337 1254Q263 1254 238 1165H204Q225 1391 403 1391Q469 1391 593 1347Q719 1302 750 1302Q821 1302 847 1394Z" />
<glyph unicode="&#xe4;" glyph-name="adieresis" horiz-adv-x="1139" d="M1057 103L1093 47Q1020 -28 931 -28Q863 -28 817 9T735 139Q640 39 568 6T395 -28Q251 -28 176 34T101 193Q101 339 272 435T729 564V706Q729 782 668 836T513 890Q426 890 363 854Q318
827 318 801Q318 786 342 754Q371 714 371 683Q371 638 342 610T266 581Q216 581 183 615T149 702Q149 801 260 883T553 965Q720 965 808 893Q896 820 896 716V204Q896 136 918 104Q940 71 975 71Q1014 71 1057 103ZM729 498Q475 463 369 384Q290 324 290 214Q290
137 331 94T438 50Q556 50 642 139T729 364V498ZM348 1369Q391 1369 421 1340T451 1268Q451 1225 421 1195T348 1164Q306 1164 276 1195T246 1269Q246 1311 276 1340T348 1369ZM733 1366Q776 1366 806 1337T836 1264Q836 1221 806 1191T733 1160Q690 1160 660 1190T629
1263Q629 1306 659 1336T733 1366Z" />
<glyph unicode="&#xe5;" glyph-name="aring" horiz-adv-x="1139" d="M1057 103L1093 47Q1020 -28 931 -28Q863 -28 817 9T735 139Q640 39 568 6T395 -28Q251 -28 176 34T101 193Q101 339 272 435T729 564V706Q729 782 668 836T513 890Q426 890 363 854Q318 827
318 801Q318 786 342 754Q371 714 371 683Q371 638 342 610T266 581Q216 581 183 615T149 702Q149 801 260 883T553 965Q720 965 808 893Q896 820 896 716V204Q896 136 918 104Q940 71 975 71Q1014 71 1057 103ZM729 498Q475 463 369 384Q290 324 290 214Q290 137
331 94T438 50Q556 50 642 139T729 364V498ZM572 1526Q656 1526 717 1465T778 1319Q778 1232 717 1171T569 1109Q483 1109 422 1169T361 1316Q361 1403 422 1464T572 1526ZM571 1444Q518 1444 481 1407T443 1316Q443 1264 480 1228T570 1191Q621 1191 658 1228T696
1318Q696 1371 660 1407T571 1444Z" />
<glyph unicode="&#xe6;" glyph-name="ae" horiz-adv-x="1630" d="M861 855Q1000 965 1140 965Q1248 965 1341 906T1487 739T1544 457H899Q900 325 938 238T1042 107T1182 62Q1265 62 1342 113T1484 278L1544 244Q1476 109 1370 41T1140 -28Q927 -28 783 187Q689
67 597 20T391 -28Q263 -28 188 36T112 199Q112 326 243 422T730 570V667Q730 777 673 833T507 890Q419 890 365 858Q323 833 323 804Q323 789 343 767Q378 729 378 686Q378 640 348 612T268 583Q220 583 189 615T157 701Q157 804 260 884T540 965Q630 965 704
940T861 855ZM899 539H1272Q1317 539 1336 560T1355 640Q1355 749 1290 822T1133 896Q1030 896 965 810T899 539ZM730 496Q487 463 377 382Q297 323 297 225Q297 152 341 107T454 61Q572 61 651 146T730 379V496Z" />
<glyph unicode="&#xe7;" glyph-name="ccedilla" horiz-adv-x="909" d="M783 278L848 259Q770 -28 504 -28Q309 -28 185 101T61 444Q61 692 197 828T517 965Q655 965 745 889T835 720Q835 664 802 628T722 591Q677 591 646 622T615 697Q615 741 649 781Q665 800
665 811Q665 840 626 867T520 895Q398 895 335 806Q245 677 245 466Q245 265 325 162T529 58Q700 58 783 278ZM505 -39Q585 -52 626 -93T668 -188Q668 -273 598 -331T395 -389Q357 -389 291 -385V-308H339Q427 -308 468 -277T509 -200Q509 -134 408 -117L430 10H511L505
-39Z" />
<glyph unicode="&#xe8;" glyph-name="egrave" horiz-adv-x="1024" d="M946 462H275Q280 248 355 160Q441 61 574 61Q770 61 889 284L954 256Q808 -28 532 -28Q344 -28 216 108T87 456Q87 684 213 824T525 965Q661 965 760 895T909 694Q944 602 946 462ZM275 533H681Q717
533 737 557T757 641Q757 751 689 828T527 905Q423 905 351 812T275 533ZM725 1119L702 1094L424 1297Q314 1378 314 1429Q314 1459 339 1484T398 1510Q453 1510 498 1446L725 1119Z" />
<glyph unicode="&#xe9;" glyph-name="eacute" horiz-adv-x="1024" d="M946 462H275Q280 248 355 160Q441 61 574 61Q770 61 889 284L954 256Q808 -28 532 -28Q344 -28 216 108T87 456Q87 684 213 824T525 965Q661 965 760 895T909 694Q944 602 946 462ZM275 533H681Q717
533 737 557T757 641Q757 751 689 828T527 905Q423 905 351 812T275 533ZM408 1094L383 1119L554 1364Q624 1466 652 1488T710 1510Q743 1510 768 1486T793 1430Q793 1380 722 1327L408 1094Z" />
<glyph unicode="&#xea;" glyph-name="ecircumflex" horiz-adv-x="1024" d="M946 462H275Q280 248 355 160Q441 61 574 61Q770 61 889 284L954 256Q808 -28 532 -28Q344 -28 216 108T87 456Q87 684 213 824T525 965Q661 965 760 895T909 694Q944 602 946 462ZM275
533H681Q717 533 737 557T757 641Q757 751 689 828T527 905Q423 905 351 812T275 533ZM479 1496H561L800 1151H736L519 1350L305 1151H241L479 1496Z" />
<glyph unicode="&#xeb;" glyph-name="edieresis" horiz-adv-x="1024" d="M946 462H275Q280 248 355 160Q441 61 574 61Q770 61 889 284L954 256Q808 -28 532 -28Q344 -28 216 108T87 456Q87 684 213 824T525 965Q661 965 760 895T909 694Q944 602 946 462ZM275
533H681Q717 533 737 557T757 641Q757 751 689 828T527 905Q423 905 351 812T275 533ZM308 1369Q351 1369 381 1340T411 1268Q411 1225 381 1195T308 1164Q266 1164 236 1195T206 1269Q206 1311 236 1340T308 1369ZM693 1366Q736 1366 766 1337T796 1264Q796 1221
766 1191T693 1160Q650 1160 620 1190T589 1263Q589 1306 619 1336T693 1366Z" />
<glyph unicode="&#xec;" glyph-name="igrave" horiz-adv-x="645" d="M49 937L421 948V142Q421 109 437 95Q460 75 495 75H601V0H69V75H168Q212 75 232 96T253 159V749Q253 805 221 833T126 862H49V937ZM754 1119L731 1094L453 1297Q343 1378 343 1429Q343 1459
368 1484T427 1510Q482 1510 527 1446L754 1119Z" />
<glyph unicode="&#xed;" glyph-name="iacute" horiz-adv-x="645" d="M49 937L421 948V142Q421 109 437 95Q460 75 495 75H601V0H69V75H168Q212 75 232 96T253 159V749Q253 805 221 833T126 862H49V937ZM432 1094L407 1119L578 1364Q648 1466 676 1488T734 1510Q767
1510 792 1486T817 1430Q817 1380 746 1327L432 1094Z" />
<glyph unicode="&#xee;" glyph-name="icircumflex" horiz-adv-x="645" d="M304 937L676 948V142Q676 109 692 95Q715 75 750 75H856V0H324V75H423Q467 75 487 96T508 159V749Q508 805 476 833T381 862H304V937ZM539 1496H621L860 1151H796L579 1350L365 1151H301L539
1496Z" />
<glyph unicode="&#xef;" glyph-name="idieresis" horiz-adv-x="645" d="M49 937L421 948V142Q421 109 437 95Q460 75 495 75H601V0H69V75H168Q212 75 232 96T253 159V749Q253 805 221 833T126 862H49V937ZM379 1369Q422 1369 452 1340T482 1268Q482 1225 452 1195T379
1164Q337 1164 307 1195T277 1269Q277 1311 307 1340T379 1369ZM764 1366Q807 1366 837 1337T867 1264Q867 1221 837 1191T764 1160Q721 1160 691 1190T660 1263Q660 1306 690 1336T764 1366Z" />
<glyph unicode="&#xf0;" glyph-name="eth" horiz-adv-x="1024" d="M711 881Q685 1015 629 1115T460 1319L280 1241L238 1294L407 1365Q342 1417 265 1463L320 1504Q417 1455 491 1404L647 1463L696 1411L553 1354Q748 1195 850 989T952 554Q952 364 893 233T734
37T502 -28Q316 -28 189 109T62 468Q62 688 189 826T495 965Q568 965 630 941Q674 924 711 881ZM505 894Q390 894 318 793T246 472Q246 248 318 146T506 44Q623 44 695 147T767 483Q767 699 696 796T505 894Z" />
<glyph unicode="&#xf1;" glyph-name="ntilde" horiz-adv-x="1251" d="M67 937L378 956Q397 868 406 750Q469 852 554 903T748 954Q841 954 904 918T1005 802T1043 625V169Q1043 118 1066 97T1143 75H1209V0H715V75H762Q828 75 854 96T880 159V560Q880 691 840
754Q784 844 670 844Q557 844 482 753T406 516V169Q406 118 429 97T507 75H572V0H76V75H141Q190 75 215 95T241 145V750Q241 810 209 841T115 872H67V937ZM987 1394H1021Q1020 1288 963 1227T823 1165Q761 1165 618 1217Q513 1254 477 1254Q403 1254 378 1165H344Q365
1391 543 1391Q609 1391 733 1347Q859 1302 890 1302Q961 1302 987 1394Z" />
<glyph unicode="&#xf2;" glyph-name="ograve" horiz-adv-x="1024" d="M509 965Q698 965 826 829T955 469Q955 315 898 207T734 35T504 -28Q322 -28 196 110T69 468Q69 689 196 827T509 965ZM509 894Q397 894 325 793T253 472Q253 249 324 146T509 43Q626 43 698
146T771 483Q771 700 700 797T509 894ZM717 1119L694 1094L416 1297Q306 1378 306 1429Q306 1459 331 1484T390 1510Q445 1510 490 1446L717 1119Z" />
<glyph unicode="&#xf3;" glyph-name="oacute" horiz-adv-x="1024" d="M509 965Q698 965 826 829T955 469Q955 315 898 207T734 35T504 -28Q322 -28 196 110T69 468Q69 689 196 827T509 965ZM509 894Q397 894 325 793T253 472Q253 249 324 146T509 43Q626 43 698
146T771 483Q771 700 700 797T509 894ZM399 1094L374 1119L545 1364Q615 1466 643 1488T701 1510Q734 1510 759 1486T784 1430Q784 1380 713 1327L399 1094Z" />
<glyph unicode="&#xf4;" glyph-name="ocircumflex" horiz-adv-x="1024" d="M509 965Q698 965 826 829T955 469Q955 315 898 207T734 35T504 -28Q322 -28 196 110T69 468Q69 689 196 827T509 965ZM509 894Q397 894 325 793T253 472Q253 249 324 146T509 43Q626
43 698 146T771 483Q771 700 700 797T509 894ZM501 1496H583L822 1151H758L541 1350L327 1151H263L501 1496Z" />
<glyph unicode="&#xf5;" glyph-name="otilde" horiz-adv-x="1024" d="M509 965Q698 965 826 829T955 469Q955 315 898 207T734 35T504 -28Q322 -28 196 110T69 468Q69 689 196 827T509 965ZM509 894Q397 894 325 793T253 472Q253 249 324 146T509 43Q626 43 698
146T771 483Q771 700 700 797T509 894ZM842 1394H876Q875 1288 818 1227T678 1165Q616 1165 473 1217Q368 1254 332 1254Q258 1254 233 1165H199Q220 1391 398 1391Q464 1391 588 1347Q714 1302 745 1302Q816 1302 842 1394Z" />
<glyph unicode="&#xf6;" glyph-name="odieresis" horiz-adv-x="1024" d="M509 965Q698 965 826 829T955 469Q955 315 898 207T734 35T504 -28Q322 -28 196 110T69 468Q69 689 196 827T509 965ZM509 894Q397 894 325 793T253 472Q253 249 324 146T509 43Q626 43
698 146T771 483Q771 700 700 797T509 894ZM339 1369Q382 1369 412 1340T442 1268Q442 1225 412 1195T339 1164Q297 1164 267 1195T237 1269Q237 1311 267 1340T339 1369ZM724 1366Q767 1366 797 1337T827 1264Q827 1221 797 1191T724 1160Q681 1160 651 1190T620
1263Q620 1306 650 1336T724 1366Z" />
<glyph unicode="&#xf7;" glyph-name="divide" horiz-adv-x="1124" d="M562 1075Q598 1075 623 1050T649 988Q649 952 624 927T561 901Q525 901 500 926T474 988Q474 1024 499 1049T562 1075ZM1101 640H23V722H1101V640ZM562 455Q599 455 624 429T650 367Q650 331
624 305T562 279Q526 279 500 305T474 367Q474 403 499 429T562 455Z" />
<glyph unicode="&#xf8;" glyph-name="oslash" horiz-adv-x="1024" d="M179 129Q69 263 69 469Q69 688 196 826T505 965Q674 965 794 860L859 937H950L843 810Q955 674 955 469Q955 315 898 207T734 36T504 -28Q349 -28 228 79L162 0H71L179 129ZM281 249L716 768Q650
894 508 894Q396 894 325 792T253 468Q253 343 281 249ZM745 695L309 176Q374 43 509 43Q626 43 698 146T771 485Q771 608 745 695Z" />
<glyph unicode="&#xf9;" glyph-name="ugrave" horiz-adv-x="1251" d="M388 954V333Q388 219 445 157T594 95Q706 95 784 185T863 412V763Q863 811 829 837T696 867V937L1025 954V185Q1025 132 1055 104T1139 75H1198V8L883 0L863 185Q779 86 694 36T522 -14Q395
-14 309 71Q222 155 222 356V763Q222 817 179 845Q149 865 56 867V937L388 954ZM799 1119L776 1094L498 1297Q388 1378 388 1429Q388 1459 413 1484T472 1510Q527 1510 572 1446L799 1119Z" />
<glyph unicode="&#xfa;" glyph-name="uacute" horiz-adv-x="1251" d="M388 954V333Q388 219 445 157T594 95Q706 95 784 185T863 412V763Q863 811 829 837T696 867V937L1025 954V185Q1025 132 1055 104T1139 75H1198V8L883 0L863 185Q779 86 694 36T522 -14Q395
-14 309 71Q222 155 222 356V763Q222 817 179 845Q149 865 56 867V937L388 954ZM518 1094L493 1119L664 1364Q734 1466 762 1488T820 1510Q853 1510 878 1486T903 1430Q903 1380 832 1327L518 1094Z" />
<glyph unicode="&#xfb;" glyph-name="ucircumflex" horiz-adv-x="1251" d="M388 954V333Q388 219 445 157T594 95Q706 95 784 185T863 412V763Q863 811 829 837T696 867V937L1025 954V185Q1025 132 1055 104T1139 75H1198V8L883 0L863 185Q779 86 694 36T522 -14Q395
-14 309 71Q222 155 222 356V763Q222 817 179 845Q149 865 56 867V937L388 954ZM585 1496H667L906 1151H842L625 1350L411 1151H347L585 1496Z" />
<glyph unicode="&#xfc;" glyph-name="udieresis" horiz-adv-x="1251" d="M388 954V333Q388 219 445 157T594 95Q706 95 784 185T863 412V763Q863 811 829 837T696 867V937L1025 954V185Q1025 132 1055 104T1139 75H1198V8L883 0L863 185Q779 86 694 36T522 -14Q395
-14 309 71Q222 155 222 356V763Q222 817 179 845Q149 865 56 867V937L388 954ZM425 1369Q468 1369 498 1340T528 1268Q528 1225 498 1195T425 1164Q383 1164 353 1195T323 1269Q323 1311 353 1340T425 1369ZM810 1366Q853 1366 883 1337T913 1264Q913 1221 883
1191T810 1160Q767 1160 737 1190T706 1263Q706 1306 736 1336T810 1366Z" />
<glyph unicode="&#xfd;" glyph-name="yacute" horiz-adv-x="1100" d="M46 937H495V869H453Q394 869 373 854T351 809Q351 796 357 783L618 219L812 687Q833 737 833 785Q833 822 804 842T688 869V937H1078V869Q965 858 926 768L580 -39Q491 -244 402 -321Q312
-399 209 -399Q134 -399 89 -358T43 -257Q43 -212 71 -183T141 -154Q179 -154 205 -179T231 -239Q231 -250 227 -269Q223 -284 223 -291Q223 -315 254 -315Q287 -315 328 -291T406 -214T532 20L177 783Q158 823 130 842T46 869V937ZM448 1094L423 1119L594 1364Q664
1466 692 1488T750 1510Q783 1510 808 1486T833 1430Q833 1380 762 1327L448 1094Z" />
<glyph unicode="&#xfe;" glyph-name="thorn" horiz-adv-x="1176" d="M351 1496V752Q420 862 496 908T662 954Q758 954 845 895T987 722T1042 465Q1042 236 908 92Q797 -28 642 -28Q554 -28 483 17T357 151V-228Q357 -272 378 -290Q405 -314 453 -314H522V-385H23V-314H92Q140
-314 164 -295T188 -245V1276Q188 1345 156 1373T23 1404V1479L351 1496ZM616 863Q507 863 432 758T356 454Q356 253 429 157T615 61Q721 61 778 143Q851 251 851 459Q851 677 785 770T616 863Z" />
<glyph unicode="&#xff;" glyph-name="ydieresis" horiz-adv-x="1100" d="M46 937H495V869H453Q394 869 373 854T351 809Q351 796 357 783L618 219L812 687Q833 737 833 785Q833 822 804 842T688 869V937H1078V869Q965 858 926 768L580 -39Q491 -244 402 -321Q312
-399 209 -399Q134 -399 89 -358T43 -257Q43 -212 71 -183T141 -154Q179 -154 205 -179T231 -239Q231 -250 227 -269Q223 -284 223 -291Q223 -315 254 -315Q287 -315 328 -291T406 -214T532 20L177 783Q158 823 130 842T46 869V937ZM398 1369Q441 1369 471 1340T501
1268Q501 1225 471 1195T398 1164Q356 1164 326 1195T296 1269Q296 1311 326 1340T398 1369ZM783 1366Q826 1366 856 1337T886 1264Q886 1221 856 1191T783 1160Q740 1160 710 1190T679 1263Q679 1306 709 1336T783 1366Z" />
</font>
</defs>
</svg>
